<?xml version="1.0" encoding="UTF-8"?><svg id="a" xmlns="http://www.w3.org/2000/svg" viewBox="0 0 135 50"><path d="M110,3c12.13,0,22,9.87,22,22s-9.87,22-22,22H25c-12.13,0-22-9.87-22-22S12.87,3,25,3H110m0-3H25C11.19,0,0,11.19,0,25H0c0,13.81,11.19,25,25,25H110c13.81,0,25-11.19,25-25h0c0-13.81-11.19-25-25-25h0Z" fill="#9a858a"/><g><path d="M72.31,12.13v5.62h-9.07v5.22h7.78v5.18h-7.78v10.08h-6.59V12.13h15.66Z" fill="#9a858a"/><path d="M91.28,19.11c0,8.71-8.46,9.14-9.94,14.07h9.83v5.04h-16.67l-.07-2.63c.32-8.39,10.66-11.59,10.66-16.2,0-1.55-.72-2.34-2.56-2.34-1.62,0-2.99,1.26-3.56,3.71l-4.75-1.62c1.12-4.18,4.03-7.38,8.89-7.38,5.76,0,8.17,3.49,8.17,7.34Z" fill="#9a858a"/><path d="M110,12.13v5.62h-9.07v5.22h7.78v5.18h-7.78v10.08h-6.59V12.13h15.66Z" fill="#9a858a"/></g><path d="M49,42H25v-2.93c0-6.63,5.37-12,12-12h0c6.63,0,12,5.37,12,12v2.93Z" fill="#9a858a"/><circle cx="36.95" cy="16.5" r="8.5" fill="#9a858a"/></svg>