<?xml version="1.0" encoding="UTF-8"?><svg xmlns="http://www.w3.org/2000/svg" viewBox="0 0 135 50"><g id="a"/><g id="b"><path d="M110,3c12.13,0,22,9.87,22,22s-9.87,22-22,22H25c-12.13,0-22-9.87-22-22S12.87,3,25,3H110m0-3H25C11.19,0,0,11.19,0,25H0c0,13.81,11.19,25,25,25H110c13.81,0,25-11.19,25-25h0c0-13.81-11.19-25-25-25h0Z" fill="#9a858a"/><path d="M30.33,40.54c-.29-.49-.6-1.14-.96-1.96-.35-.81-.72-1.72-1.11-2.74-.39-1.01-.77-2.06-1.15-3.16-.38-1.09-.73-2.17-1.05-3.23s-.6-2.04-.83-2.95-.39-1.68-.47-2.3l2.51-.29c.02,.53,.13,1.21,.31,2.04,.19,.83,.43,1.75,.73,2.75,.3,1,.63,2.02,.99,3.07,.36,1.05,.74,2.05,1.13,3.02,.39,.97,.76,1.84,1.13,2.63s.69,1.41,.98,1.87l-2.2,1.25Zm7.43-2.96c-1.07,.33-2.03,.32-2.87-.02s-1.4-.93-1.69-1.77c-.17-.52-.17-1.06,0-1.61,.17-.56,.5-1.07,1-1.55,.5-.48,1.16-.87,1.98-1.16,.43-.16,.85-.28,1.24-.38-.23-.59-.49-1.26-.79-2-.3-.75-.62-1.56-.97-2.44-.82,.36-1.62,.68-2.4,.97s-1.45,.52-2.02,.69l-1.05-2.41c.53-.1,1.2-.29,2.02-.58,.82-.29,1.68-.62,2.57-.98-.21-.54-.42-1.08-.63-1.64-.21-.56-.42-1.13-.63-1.71l2.37-.86c.17,.52,.35,1.05,.54,1.59,.19,.54,.38,1.09,.58,1.65,.79-.36,1.49-.7,2.13-1.03,.63-.33,1.09-.6,1.39-.83l.88,2.43c-.35,.22-.84,.48-1.46,.78s-1.3,.62-2.03,.96c.38,.98,.76,1.91,1.12,2.79,.36,.88,.68,1.66,.95,2.32,.85,0,1.71,.08,2.56,.24s1.71,.38,2.57,.65c-.11,.18-.21,.42-.32,.74-.11,.32-.19,.64-.26,.96-.07,.32-.11,.59-.13,.79-1.2-.5-2.37-.82-3.51-.98,.29,1.1,.16,2.01-.4,2.72-.56,.71-1.47,1.27-2.73,1.66Zm-.56-2.13c.55-.2,.93-.46,1.13-.78s.19-.77-.02-1.36l-.05-.14c-.5,.06-1,.16-1.51,.32-.5,.17-.88,.39-1.12,.68s-.32,.57-.23,.86c.09,.29,.3,.47,.63,.55s.72,.04,1.17-.12Z" fill="#9a858a"/><path d="M58.65,29.11c-.2-.53-.48-1.13-.84-1.8s-.76-1.37-1.2-2.1-.9-1.43-1.36-2.12c-.46-.69-.9-1.31-1.31-1.87-.41-.56-.76-1-1.05-1.33-.44-.49-.64-.92-.6-1.26,.04-.35,.3-.69,.77-1.04,.37-.27,.81-.61,1.32-1.04,.51-.42,1.04-.89,1.6-1.4,.56-.51,1.11-1.04,1.65-1.59,.54-.54,1.03-1.07,1.47-1.59,.44-.52,.79-.99,1.05-1.42l2.19,1.8c-.34,.38-.8,.85-1.37,1.4-.58,.55-1.19,1.13-1.86,1.72-.66,.59-1.3,1.16-1.9,1.69-.61,.53-1.13,.97-1.56,1.32-.37,.28-.39,.62-.05,1.01,.27,.33,.6,.76,1,1.3s.81,1.14,1.25,1.79,.88,1.31,1.32,1.97c.44,.66,.83,1.28,1.18,1.86,.35,.58,.63,1.05,.83,1.43-.24,.06-.53,.17-.86,.31-.33,.15-.65,.31-.95,.48-.31,.17-.55,.33-.73,.48Zm5.27-10.97c-.24-.44-.55-.91-.96-1.42-.4-.51-.76-.93-1.09-1.25l1.17-.84c.19,.18,.42,.44,.71,.77,.28,.33,.55,.67,.81,1.02,.26,.35,.46,.64,.6,.87l-1.24,.86Zm1.95-1.45c-.25-.44-.58-.91-.99-1.42-.41-.51-.78-.91-1.11-1.22l1.18-.84c.19,.18,.42,.44,.7,.76,.28,.32,.55,.65,.82,1s.47,.63,.61,.86l-1.22,.86Z" fill="#9a858a"/><path d="M71.92,34.87l1.33-5.6c-.61,.42-1.18,.82-1.7,1.2s-.93,.69-1.24,.94l-1.37-1.9c.66-.33,1.41-.76,2.27-1.3,.86-.54,1.75-1.09,2.69-1.67l.64-2.69c-.61,0-1.2-.02-1.79-.03-.58-.01-1.05-.03-1.41-.04l.05-2.29c.38,.06,.92,.12,1.61,.17,.68,.05,1.36,.09,2.04,.11l.92-3.87,2.2,.52-.78,3.28h.04l.99,1.16-1.67,1.95c.75-.42,1.48-.78,2.19-1.1,.71-.31,1.37-.54,1.99-.69s1.15-.16,1.61-.05c.9,.21,1.49,.65,1.77,1.3,.27,.65,.21,1.58-.19,2.79-.06,.21-.17,.51-.31,.91-.14,.4-.3,.85-.47,1.35-.17,.5-.33,1-.5,1.49-.16,.49-.32,.94-.45,1.32-.13,.39-.23,.68-.29,.85-.2,.55-.03,.89,.51,1.01s1.08,.05,1.63-.23c.55-.28,1.06-.67,1.52-1.15,.02,.2,.08,.45,.16,.75,.09,.3,.19,.6,.31,.88,.12,.28,.23,.51,.33,.67-.42,.41-.9,.75-1.44,1.01-.55,.26-1.1,.43-1.67,.51-.56,.08-1.1,.06-1.59-.06-2.11-.5-2.82-1.79-2.13-3.87,.08-.2,.18-.51,.32-.93,.14-.42,.29-.88,.46-1.38s.34-1.01,.52-1.52c.18-.5,.33-.96,.47-1.36,.14-.4,.23-.69,.29-.87,.13-.44,.17-.76,.11-.97-.06-.21-.24-.35-.54-.42-.26-.06-.67,.01-1.21,.22-.55,.21-1.18,.51-1.89,.9-.71,.39-1.46,.83-2.24,1.3l-1.88,7.91-2.2-.52Z" fill="#9a858a"/><path d="M102.45,34.17c-1.81,0-3.14-.34-4-1.03-.86-.69-1.29-1.53-1.29-2.52,0-.65,.16-1.2,.47-1.65,.32-.45,.73-.8,1.24-1.05,.51-.25,1.06-.37,1.65-.37,1.11,0,2.02,.35,2.7,1.04,.68,.69,1.13,1.55,1.32,2.58,.56-.26,1.01-.65,1.37-1.18,.35-.53,.53-1.16,.53-1.9,0-.63-.15-1.2-.45-1.69-.3-.5-.73-.89-1.28-1.19-.55-.29-1.19-.44-1.91-.44-1.01,0-1.89,.12-2.63,.36-.75,.24-1.42,.63-2.02,1.15-.27,.24-.63,.55-1.07,.93-.44,.38-.86,.72-1.25,1.02l-1.85-1.99c.68-.39,1.4-.89,2.17-1.49,.77-.6,1.55-1.27,2.33-2.01s1.53-1.5,2.24-2.29c.71-.79,1.34-1.57,1.9-2.34-.65,.15-1.35,.29-2.11,.43-.76,.14-1.49,.25-2.19,.34-.7,.09-1.29,.15-1.77,.18l-.5-2.58c.41,.03,.92,.03,1.52-.01,.61-.04,1.27-.09,1.98-.16,.71-.07,1.4-.15,2.07-.26,.67-.1,1.27-.21,1.81-.33s.93-.23,1.19-.35l2.03,1.36c-.51,1.01-1.22,2.07-2.11,3.18-.9,1.11-1.86,2.17-2.88,3.2,.26-.12,.54-.21,.86-.28s.63-.1,.93-.1c1.19,0,2.22,.23,3.1,.68,.87,.45,1.55,1.08,2.05,1.89,.49,.81,.73,1.74,.73,2.81,0,1.13-.28,2.16-.85,3.07s-1.36,1.65-2.38,2.19-2.23,.81-3.62,.81Zm-.29-2.49c-.08-.57-.25-1.03-.53-1.38-.28-.35-.64-.52-1.1-.52-.24,0-.44,.06-.61,.18-.17,.12-.25,.3-.25,.54,0,.32,.17,.58,.51,.79,.34,.21,.91,.33,1.71,.36,.04,.02,.09,.02,.13,.02h.14Z" fill="#9a858a"/></g></svg>