<?xml version="1.0" encoding="UTF-8"?><svg xmlns="http://www.w3.org/2000/svg" viewBox="0 0 135 50"><g id="a"/><g id="b"><path d="M110,3c12.13,0,22,9.87,22,22s-9.87,22-22,22H25c-12.13,0-22-9.87-22-22S12.87,3,25,3H110m0-3H25C11.19,0,0,11.19,0,25H0c0,13.81,11.19,25,25,25H110c13.81,0,25-11.19,25-25h0c0-13.81-11.19-25-25-25h0Z" fill="#9a858a"/><g><path d="M51.02,38.6c-.26-.3-.61-.64-1.04-1.01-.43-.37-.88-.72-1.35-1.03-.47-.31-.88-.55-1.25-.71,1.4-1.54,2.19-3.2,2.36-5.09,.18-1.89-.14-3.76-1.1-5.69-.76-1.53-1.71-2.81-2.92-3.83-1.21-1.01-2.53-1.74-3.97-2.15-1.44-.41-2.84-.47-4.14-.16,1.14,2,2.19,4.08,3.2,6.28,1.01,2.19,1.87,4.33,2.61,6.41,.74,2.08,1.26,3.98,1.54,5.68,.21,1.27,.18,2.17-.13,2.67-.32,.5-.86,.77-1.67,.8-.79,.03-1.74-.2-2.86-.69-1.12-.49-2.31-1.2-3.58-2.13-1.27-.93-2.51-2.04-3.67-3.34-1.73-1.93-3.06-3.9-3.89-5.88-.83-1.97-1.17-3.87-.99-5.66,.18-1.79,.88-3.36,2.06-4.67,1.18-1.31,2.8-2.26,4.77-2.83,1.59-.46,3.27-.56,4.98-.34,1.7,.22,3.34,.76,4.88,1.57,1.54,.81,2.89,1.86,4.07,3.13,1.18,1.26,2.09,2.74,2.81,4.42,1.21,2.8,1.6,5.36,1.42,7.8-.18,2.44-.88,4.56-2.13,6.45Zm-10.62-2.17c.28,.06,.5,.04,.65-.07,.16-.11,.2-.35,.16-.71-.15-1.09-.55-2.45-1.18-4.1-.63-1.65-1.42-3.43-2.38-5.34-.96-1.91-2.02-3.79-3.23-5.64-1.04,.9-1.69,2.05-1.93,3.42-.23,1.37-.06,2.84,.5,4.39,.56,1.55,1.5,3.1,2.74,4.61,.82,1,1.67,1.79,2.49,2.37,.82,.58,1.54,.94,2.17,1.09Z" fill="#9a858a"/><path d="M61.96,34.46c-1.05,.35-2.01,.25-2.96-.37-.95-.62-1.75-1.59-2.31-2.89-.37-.86-.53-1.71-.43-2.52,.09-.81,.43-1.51,1-2.09,.57-.58,1.41-.92,2.36-1.11,.26-.05,.52-.1,.77-.12,.25-.02,.5-.04,.76-.05-.44-1.3-.66-1.96-1.1-3.26-.28,.06-.56,.12-.85,.17s-.58,.1-.86,.15c-.99,.19-1.8,.26-2.45,.21-.65-.06-1.23-.27-1.76-.63-.53-.36-1.14-.9-1.85-1.62,.74-.79,1.13-1.18,1.93-1.91,.46,.49,.89,.77,1.28,.86,.39,.09,.99,.06,1.81-.06,.26-.04,.54-.09,.83-.13,.29-.05,.58-.1,.88-.16-.18-.51-.36-1.03-.53-1.56-.18-.53-.36-1.05-.54-1.56-1.36,.2-2.64,.42-3.85,.63-1.21,.21-2.16,.39-2.84,.5-.64-1.33-.96-1.99-1.6-3.32,.73-.06,1.75-.19,3.06-.37,1.32-.17,2.72-.34,4.2-.5-.24-.68-.46-1.34-.66-1.97l-.55-1.74c1.49-.05,2.24-.06,3.72-.04,.13,.5,.27,1.04,.42,1.61,.15,.57,.32,1.18,.5,1.8,1.34-.11,2.58-.19,3.7-.26,1.13-.07,1.95-.13,2.48-.21,.18,1.15,.27,1.73,.45,2.88-.5,.08-1.28,.14-2.34,.23-1.06,.08-2.22,.19-3.49,.34,.15,.5,.29,1,.43,1.51,.14,.51,.28,1.01,.43,1.51,1.03-.19,2-.36,2.93-.53,.92-.17,1.66-.33,2.19-.49,.2,1.23,.3,1.84,.5,3.07-.61,.15-1.33,.31-2.15,.48-.83,.18-1.7,.36-2.61,.55,.22,.74,.43,1.44,.61,2.13,.18,.68,.36,1.32,.52,1.91,1.22,.19,2.39,.52,3.47,.97,1.09,.45,2.08,.96,2.99,1.52-.16,.19-.33,.47-.5,.83-.17,.36-.32,.74-.44,1.11-.12,.38-.21,.7-.26,.96-1.31-1.03-2.79-1.81-4.39-2.27,.34,1.39,.26,2.57-.17,3.6-.43,1.03-1.32,1.76-2.73,2.24Zm-1.04-3.14c.7-.19,1.15-.49,1.36-.9,.21-.41,.23-.88,.07-1.41-.1-.32-.15-.48-.25-.8-.32,0-.64,.01-.95,.05-.31,.04-.6,.1-.89,.18-.6,.17-1.01,.44-1.21,.81-.2,.37-.22,.76-.07,1.15,.35,.88,1,1.18,1.94,.93Z" fill="#9a858a"/><path d="M75.28,31.27c0-2.68-.01-4.02-.02-6.7-.57,.62-1.07,1.23-1.51,1.82-.44,.59-.76,1.1-.99,1.49-.8-.7-1.22-1.06-2.1-1.79,.56-.63,1.21-1.4,1.98-2.27,.77-.87,1.64-1.72,2.61-2.53,0-1.29,0-1.93-.01-3.22-.79,.04-1.56,.1-2.32,.17-.75,.07-1.35,.14-1.81,.19-.35-1.13-.54-1.69-.92-2.84,.54,.02,1.28,0,2.23,0,.94,0,1.88-.01,2.81,0v-4.63c1.37,.31,2.07,.48,3.44,.85-.09,1.49-.14,2.24-.23,3.73h.06c.67,.55,1,.83,1.64,1.39-.74,.82-1.1,1.25-1.78,2.14,.87-.48,1.76-.86,2.66-1.15,.9-.29,1.77-.44,2.6-.49,.83-.05,1.57,.06,2.22,.28,1.28,.45,2.12,1.07,2.52,1.8,.4,.73,.32,1.61-.19,2.68-.08,.18-.21,.45-.39,.81-.18,.36-.38,.76-.58,1.21-.21,.45-.41,.9-.61,1.35-.2,.45-.38,.86-.54,1.21-.16,.36-.27,.62-.34,.79-.23,.51-.05,.82,.54,.94,.59,.12,1.2,.07,1.84-.14,.64-.21,1.26-.48,1.85-.82,0,.17,.04,.4,.11,.66,.07,.27,.15,.53,.25,.78,.1,.25,.19,.44,.28,.59-.53,.28-1.1,.5-1.73,.68-.63,.18-1.24,.31-1.85,.39-.61,.08-1.16,.09-1.68,.01-2.18-.31-2.96-1.42-2.3-3.52,.07-.21,.18-.52,.32-.93,.14-.42,.29-.88,.46-1.38,.17-.5,.35-1,.53-1.5,.18-.5,.35-.94,.49-1.33,.15-.39,.25-.68,.31-.85,.14-.42,.16-.75,.06-.98-.1-.22-.35-.4-.76-.52-.35-.11-.89-.09-1.58,.07-.69,.16-1.47,.44-2.31,.85-.84,.41-1.69,.92-2.52,1.52-.22,3.6-.33,5.4-.56,9.01-.88,.04-1.32,.07-2.2,.14Z" fill="#9a858a"/><path d="M96.52,33.87c-1.58-.6-2.6-1.13-3.08-1.76-.48-.63-.55-1.27-.14-1.86,.26-.39,.63-.66,1.13-.8,.49-.14,1.05-.16,1.66-.07,.61,.09,1.21,.29,1.79,.58,1.09,.55,1.8,1.19,2.11,1.83,.3,.64,.27,1.19-.08,1.67,.64,.16,1.26,.24,1.86,.25,.6,0,1.11-.1,1.51-.33,.34-.2,.51-.48,.48-.83-.02-.36-.23-.77-.62-1.24-.39-.46-.95-.93-1.68-1.38-1.02-.62-1.97-1.08-2.84-1.37-.87-.29-1.73-.43-2.56-.42-.38,0-.87,.02-1.47,.05-.6,.03-1.15,.07-1.65,.12-.43-.78-.66-1.19-1.16-2.03,.84,0,1.77-.02,2.81-.02,1.04,0,2.14,0,3.29,.05,1.15,.05,2.3,.12,3.44,.23,1.13,.1,2.2,.23,3.19,.34-.79-.46-1.64-.94-2.55-1.45-.91-.5-1.79-.97-2.62-1.4-.83-.43-1.54-.79-2.1-1.08,.18-.76,.26-1.15,.42-1.93,.48,.31,1.09,.67,1.82,1.09,.74,.43,1.54,.9,2.39,1.43,.85,.52,1.69,1.04,2.51,1.56,.82,.52,1.55,1,2.21,1.43,.66,.43,1.16,.76,1.51,.95,.63,.97,.93,1.45,1.5,2.39-1.1-.16-2.41-.44-3.93-.73-1.52-.29-3.06-.54-4.61-.72,.33,.11,.67,.25,1.03,.43,.36,.18,.7,.38,1.01,.59,1.22,.82,2.15,1.67,2.78,2.46,.62,.79,.93,1.47,.94,2.03,.01,.56-.3,.94-.91,1.19-.65,.26-1.49,.32-2.51,.26-1.02-.06-2.12-.23-3.31-.48-1.19-.25-2.37-.58-3.58-1.04Zm.94-1.22c.21-.29,.27-.57,.17-.85-.09-.28-.36-.53-.79-.72-.23-.1-.45-.16-.66-.16-.21,0-.37,.06-.48,.18-.14,.17-.1,.37,.12,.6,.22,.23,.68,.5,1.4,.83,.03,.02,.07,.05,.11,.06l.12,.05Z" fill="#9a858a"/></g></g></svg>