<?xml version="1.0" encoding="UTF-8"?><svg id="a" xmlns="http://www.w3.org/2000/svg" viewBox="0 0 135 50"><g><path d="M42,42c-9.37,0-17-7.63-17-17s7.63-17,17-17,17,7.63,17,17c0,1.84-.29,3.65-.87,5.38-.3,.91-1.29,1.41-2.21,1.1-.91-.3-1.41-1.29-1.1-2.21,.46-1.37,.69-2.81,.69-4.28,0-7.45-6.06-13.51-13.51-13.51s-13.51,6.06-13.51,13.51,6.06,13.51,13.51,13.51c.96,0,1.74,.78,1.74,1.74s-.78,1.74-1.74,1.74Z" fill="#fbfbfb"/><path d="M52.73,27.77l.05,6.3c0,.76,.84,1.24,1.5,.85l5.43-3.19c.66-.39,.65-1.34-.01-1.72l-5.48-3.11c-.66-.38-1.49,.11-1.48,.87Z" fill="#fbfbfb"/></g><g><path d="M87.48,21.18v8.03c0,5.69-3.35,9.4-9.54,9.4s-9.5-3.71-9.5-9.4v-8.03c0-5.69,3.35-9.4,9.5-9.4s9.54,3.71,9.54,9.4Zm-6.55,0c0-2.95-.86-4-2.99-4s-2.95,1.01-2.95,4v8.03c0,3.1,.86,4.18,2.95,4.18s2.99-1.08,2.99-4.18v-8.03Z" fill="#fbfbfb"/><path d="M100.26,12.14c6.08,0,9.58,3.71,9.58,9.43v7.16c0,5.76-3.49,9.5-9.58,9.5h-9.5V12.14h9.5Zm0,5.51h-2.92v15.26h2.92c2.12,0,3.02-.97,3.02-4.36v-6.66c0-3.28-.9-4.25-3.02-4.25Z" fill="#fbfbfb"/></g><path d="M110,3c12.13,0,22,9.87,22,22s-9.87,22-22,22H25c-12.13,0-22-9.87-22-22S12.87,3,25,3H110m0-3H25C11.19,0,0,11.19,0,25H0c0,13.81,11.19,25,25,25H110c13.81,0,25-11.19,25-25h0c0-13.81-11.19-25-25-25h0Z" fill="#fbfbfb"/><path d="M47.73,26l-8.15,4.71c-.77,.44-1.73-.11-1.73-1v-9.41c0-.89,.96-1.44,1.73-1l8.15,4.71c.77,.44,.77,1.56,0,2Z" fill="#fbfbfb"/></svg>