<svg xmlns="http://www.w3.org/2000/svg" width="30" height="38.828" viewBox="0 0 30 38.828">
  <g id="アンケート" transform="translate(-58.203)">
    <path id="パス_68" data-name="パス 68" d="M87.907,6.67a3.756,3.756,0,0,0-3.461-2.294H81.211V3.818H76.522a3.352,3.352,0,1,0-6.638,0H65.2v.558H61.96A3.756,3.756,0,0,0,58.2,8.133V35.071a3.756,3.756,0,0,0,3.757,3.756H84.446A3.756,3.756,0,0,0,88.2,35.071V8.133A3.729,3.729,0,0,0,87.907,6.67ZM73.2,2.108a1.243,1.243,0,0,1,1.153,1.71h-2.3a1.223,1.223,0,0,1-.092-.466A1.246,1.246,0,0,1,73.2,2.108ZM85.968,35.071a1.5,1.5,0,0,1-.12.591,1.535,1.535,0,0,1-.552.672,1.509,1.509,0,0,1-.851.258H61.96a1.522,1.522,0,0,1-1.523-1.521V8.133a1.5,1.5,0,0,1,.12-.593,1.522,1.522,0,0,1,1.4-.93H65.2v.466a1.583,1.583,0,0,0,1.584,1.583H79.628a1.583,1.583,0,0,0,1.583-1.583V6.611h3.235a1.5,1.5,0,0,1,.593.12,1.526,1.526,0,0,1,.671.552,1.5,1.5,0,0,1,.26.851Z" fill="#ff0074"/>
    <rect id="長方形_47" data-name="長方形 47" width="3.747" height="3.747" transform="translate(65.267 12.464)" fill="#ff0074"/>
    <rect id="長方形_48" data-name="長方形 48" width="15.447" height="3.747" transform="translate(67.383 12.464)" fill="#ff0074"/>
    <rect id="長方形_49" data-name="長方形 49" width="3.747" height="3.747" transform="translate(65.267 19.288)" fill="#ff0074"/>
    <rect id="長方形_50" data-name="長方形 50" width="15.447" height="3.747" transform="translate(67.383 19.288)" fill="#ff0074"/>
    <rect id="長方形_51" data-name="長方形 51" width="3.747" height="3.747" transform="translate(65.267 26.114)" fill="#ff0074"/>
    <rect id="長方形_52" data-name="長方形 52" width="15.447" height="3.747" transform="translate(67.383 26.114)" fill="#ff0074"/>
  </g>
</svg>
