<?xml version="1.0" encoding="UTF-8"?><svg xmlns="http://www.w3.org/2000/svg" viewBox="0 0 135 50"><g id="a"/><g id="b"><path d="M110,3c12.13,0,22,9.87,22,22s-9.87,22-22,22H25c-12.13,0-22-9.87-22-22S12.87,3,25,3H110m0-3H25C11.19,0,0,11.19,0,25H0c0,13.81,11.19,25,25,25H110c13.81,0,25-11.19,25-25h0c0-13.81-11.19-25-25-25h0Z" fill="#9a858a"/><g><path d="M48.13,37.83c-.22-.27-.49-.56-.82-.84-.33-.29-.62-.5-.85-.62,.04-.66,.03-1.51-.1-2.55-.12-1.04-.34-2.21-.68-3.51-.34-1.3-.79-2.66-1.37-4.08-.57-1.42-1.24-2.84-1.98-4.24-.55,.12-1.08,.21-1.59,.27-.51,.06-.96,.08-1.34,.06-1.12-1.32-1.73-1.97-3.04-3.28,.55,.04,1.18,.03,1.9-.04,.72-.06,2.11-.28,2.13-.33,.08-.2-1.25-1.91-1.87-2.75-.62-.84-1.23-1.58-1.8-2.23,1.21,.11,1.8,.17,2.98,.3,.4,.56,.83,1.19,1.25,1.88,.43,.69,.87,1.43,1.32,2.22,.39-.16,.75-.34,1.08-.52,.32-.19,.58-.38,.77-.57,1.01,1.3,1.48,1.95,2.36,3.25-.24,.21-.57,.42-.99,.65-.42,.22-.9,.42-1.44,.6,.73,1.52,1.4,3.07,1.97,4.64,.57,1.57,1.03,3.1,1.37,4.57,.34,1.47,.55,2.82,.66,4.04,.11,1.22,.12,2.26,.06,3.1Zm7.82-.66c-.81,.29-1.6,.32-2.38,.11-.78-.22-1.49-.63-2.17-1.23-.67-.6-1.26-1.33-1.79-2.19,.02-1,.01-1.51-.02-2.52,.53,.69,1.11,1.26,1.76,1.71,.65,.45,1.32,.72,2.04,.81,.72,.09,1.46-.03,2.23-.38,0,.49,.06,1.1,.13,1.83,.07,.74,.14,1.36,.21,1.86Zm-2.72-10.36c-.38-.21-.81-.4-1.29-.57-.47-.16-.96-.29-1.46-.38-.5-.09-.98-.15-1.44-.17-.46-.02-.86-.02-1.2,.03-.56-1.34-.87-2.02-1.55-3.38,.36-.05,.81-.06,1.35-.03,.54,.03,1.11,.09,1.71,.18,.6,.08,1.18,.19,1.74,.33,.56,.14,1.04,.28,1.46,.44,.29,1.43,.43,2.15,.67,3.56Z" fill="#9a858a"/><path d="M58.68,38.51c-.19-.28-.44-.57-.74-.86-.3-.29-.56-.5-.78-.63,.13-.71,.23-1.63,.29-2.75s.09-2.38,.06-3.77c-.02-1.39-.09-2.85-.2-4.37-.11-1.52-.26-3.05-.45-4.55-.59,.11-1.14,.19-1.67,.24-.53,.05-.97,.06-1.34,.03-.58-1.44-.9-2.16-1.57-3.61,.52,.06,1.14,.08,1.86,.04,.73-.04,2.11-.11,2.22-.27,.19-.27-.34-2.05-.54-2.95-.19-.9-.4-1.71-.61-2.41,1.1,.18,1.64,.27,2.71,.46,.1,.6,.2,1.27,.28,2,.08,.73,.17,1.52,.25,2.36,.46-.15,.89-.32,1.29-.5,.4-.18,.74-.37,1.01-.56,.39,1.38,.56,2.07,.9,3.45-.32,.21-.73,.42-1.24,.64-.51,.22-1.06,.42-1.65,.59,.12,1.61,.22,3.27,.29,4.94s.1,3.29,.1,4.86c0,1.57-.05,3-.13,4.3-.08,1.3-.2,2.41-.33,3.32Zm7.94-1.07c-.85,.33-1.65,.4-2.41,.22-.76-.19-1.43-.59-2.03-1.19-.6-.6-1.08-1.35-1.46-2.25,.19-1.06,.29-1.6,.48-2.67,.38,.72,.85,1.31,1.42,1.76s1.19,.72,1.9,.8c.71,.08,1.47-.07,2.3-.45-.08,.5-.13,1.13-.17,1.88-.04,.76-.05,1.39-.03,1.91Zm-.6-10.65c-.32-.22-.69-.42-1.12-.59-.42-.17-.87-.31-1.34-.41-.47-.1-.93-.16-1.38-.19-.45-.03-.85-.02-1.2,.02-.13-1.41-.2-2.13-.35-3.57,.38-.04,.83-.04,1.35,0,.52,.05,1.07,.12,1.63,.22,.57,.1,1.1,.23,1.61,.38,.51,.15,.93,.31,1.29,.47-.21,1.47-.31,2.21-.49,3.67Z" fill="#9a858a"/><path d="M70.93,39.43c-.08-.39-.2-.87-.34-1.43-.14-.56-.31-1.04-.5-1.44,.86-.61,1.56-1.3,2.08-2.1,.52-.79,.93-1.73,1.23-2.81-.28,.32-.57,.48-.87,.49-.65,0-1.13-.41-1.48-1.26-.35-.85-.51-2.02-.43-3.52,.05-1.01,.21-1.92,.5-2.72,.29-.8,.67-1.44,1.14-1.91,.47-.47,.99-.7,1.54-.69,.08,0,.16,0,.22,.02,.06,.01,.13,.03,.2,.05,.06-.67,.15-1.4,.29-2.18-.92,.05-1.82,.14-2.69,.25-.87,.12-1.66,.25-2.38,.41-.71,.15-1.3,.33-1.76,.54-.1-1.43-.16-2.15-.29-3.59,.43-.06,1.04-.13,1.82-.2,.78-.07,1.68-.14,2.7-.22,1.02-.07,2.08-.14,3.18-.21,.37-1.8,.57-2.71,1-4.52,.96,.02,1.44,.03,2.39,.06-.53,1.74-.78,2.61-1.24,4.35,.97-.04,1.9-.08,2.79-.1,.89-.03,1.68-.04,2.38-.03,.7,0,1.24,.01,1.64,.03-.71,1.41-1.04,2.11-1.65,3.51-.59-.16-1.43-.27-2.49-.32-1.07-.05-2.21-.07-3.43-.05-.16,.71-.3,1.43-.44,2.15-.14,.72-.26,1.41-.37,2.06,.26,1.18,.17,2.72-.15,4.64-.45,2.65-1.04,4.88-1.82,6.69-.77,1.81-1.67,3.17-2.78,4.05Zm1.91-10.28c.26-.04,.48-.23,.67-.57,.19-.34,.32-.78,.4-1.32,.03-.18,.05-.38,.06-.59,.02-.21,.03-.43,.05-.65-.13-.5-.35-.76-.67-.76-.27,0-.53,.18-.76,.54-.23,.36-.36,.84-.42,1.42-.06,.58-.03,1.06,.1,1.43,.12,.37,.31,.54,.57,.49Zm7.8-12.69c.03-.66,0-1.36-.11-2.12-.1-.76-.24-1.38-.41-1.86,.64-.5,.98-.75,1.66-1.25,.09,.28,.18,.66,.25,1.15,.07,.49,.14,.99,.18,1.5,.05,.51,.06,.94,.05,1.29-.67,.52-1,.78-1.63,1.3Zm2.8-.46c.06-.65,.07-1.34,.02-2.05-.05-.71-.15-1.3-.29-1.77,.69-.49,1.05-.74,1.79-1.23,.07,.27,.13,.65,.17,1.11,.04,.47,.06,.95,.07,1.43,.01,.48,0,.9-.04,1.25-.71,.5-1.05,.75-1.72,1.25Z" fill="#9a858a"/><path d="M82.86,38.09c-.67,.05-1.23-.01-1.67-.17-.44-.16-.75-.52-.92-1.05-.17-.54-.17-1.34,.03-2.41,.12-.62,.32-1.26,.61-1.93,.3-.66,.62-1.34,.99-2.05-.4,.1-.68-.06-.85-.48-.17-.44-.2-1.08-.07-1.9,.13-.82,.38-1.68,.78-2.56,.51-1.12,1.12-2,1.78-2.61,.66-.61,1.27-.98,1.8-1.11,.19-.05,.36-.08,.53-.07,.33-.68,.51-1.02,.87-1.71-.62,.04-1.21,.06-1.79,.08-.58,.01-1.09,.01-1.55,0,.5-1.29,.76-1.94,1.32-3.24,.36,.08,.88,.12,1.54,.14,.67,.02,1.39,0,2.19-.04,.84-1.42,1.29-2.13,2.24-3.55,.91,.05,1.36,.08,2.26,.14-.97,1.3-1.42,1.95-2.29,3.25,.65-.07,1.25-.14,1.82-.22,.57-.08,1.07-.17,1.48-.29-.95,1.26-1.4,1.88-2.24,3.14-.41,.08-.87,.15-1.38,.22-.51,.07-1.04,.14-1.61,.22-.72,1.23-1.06,1.84-1.68,3.06,.02,.49-.11,1.1-.38,1.81-.27,.72-.65,1.46-1.12,2.25-.37,.63-.73,1.21-1.09,1.74-.36,.53-.69,1.03-1.01,1.5-.31,.47-.59,.94-.82,1.39-.23,.46-.41,.92-.52,1.41-.13,.52-.17,.91-.14,1.16,.03,.26,.16,.42,.39,.5,.23,.08,.59,.1,1.09,.08,.63-.03,1.17-.17,1.61-.41,.44-.25,.83-.62,1.18-1.14,.35-.51,.7-1.19,1.08-2.02,.38-.83,.83-1.86,1.42-3.07,.05,.13,.14,.27,.28,.42,.14,.15,.29,.27,.46,.37,.17,.1,.43,.17,.43,.17,.2,.38-1.75,3.69-2.42,4.99-.66,1.3-1.3,2.28-2.02,2.92-.72,.64-1.57,1.01-2.62,1.08Zm-.32-10.31c.08,.23,.27,.23,.57,0,.3-.23,.63-.7,1-1.39,.27-.5,.43-.92,.49-1.27,.05-.34,.02-.55-.08-.64-.13-.11-.35-.05-.65,.21-.3,.26-.64,.77-.99,1.51-.17,.37-.28,.69-.33,.96-.05,.27-.05,.48,0,.61Zm9.15-1.12c.07-.46,.11-.99,.12-1.61,.01-.61,0-1.2-.07-1.77-.06-.57-.18-1.02-.34-1.36,1.13-.97,1.74-1.45,3.02-2.41,.15,.3,.25,.72,.3,1.26,.05,.53,.06,1.09,.04,1.67-.02,.58-.08,1.11-.16,1.59-1.25,1.04-1.83,1.56-2.9,2.62Z" fill="#9a858a"/></g></g></svg>