<?xml version="1.0" encoding="UTF-8"?><svg id="a" xmlns="http://www.w3.org/2000/svg" viewBox="0 0 135 50"><path d="M110,3c12.13,0,22,9.87,22,22s-9.87,22-22,22H25c-12.13,0-22-9.87-22-22S12.87,3,25,3H110m0-3H25C11.19,0,0,11.19,0,25H0c0,13.81,11.19,25,25,25H110c13.81,0,25-11.19,25-25h0c0-13.81-11.19-25-25-25h0Z" fill="#9a858a"/><g><path d="M66.86,11.95v20.66h6.47v5.44h-11.47V11.95h5Z" fill="#9a858a"/><path d="M80.78,11.95v26.1h-5.18V11.95h5.18Z" fill="#9a858a"/><path d="M94.09,38.05h-5.49l-6.07-26.1h5.64l3.16,18.36h.06l3.13-18.36h5.64l-6.07,26.1Z" fill="#9a858a"/><path d="M113.76,11.95v5.36h-6.84v5h5v4.68h-5v5.8h7.08v5.25h-12.27V11.95h12.02Z" fill="#9a858a"/></g><rect x="32.84" y="8" width="23.36" height="34" rx="2.07" ry="2.07" fill="#9a858a"/><path d="M38.84,26.5l-14.08,14.77c-1.36,1.43-3.76,.46-3.76-1.5V10.23c0-1.97,2.4-2.93,3.76-1.5l14.08,14.77c.8,.84,.8,2.17,0,3.01Z" fill="#9a858a"/></svg>