<?xml version="1.0" encoding="utf-8"?>
<!-- Generator: Adobe Illustrator 26.1.0, SVG Export Plug-In . SVG Version: 6.00 Build 0)  -->
<svg version="1.1" id="レイヤー_1" xmlns="http://www.w3.org/2000/svg" xmlns:xlink="http://www.w3.org/1999/xlink" x="0px"
	 y="0px" viewBox="0 0 24 24" style="enable-background:new 0 0 24 24;" xml:space="preserve">
<style type="text/css">
	.st0{fill:#002537;}
</style>
<path class="st0" d="M7,0H17c3.8,0,7,3.1,7,7V17c0,3.8-3.1,7-7,7H7c-3.8,0-7-3.1-7-7V7C0,3.1,3.1,0,7,0 M6.7,2.4
	c-2.4,0-4.3,1.9-4.3,4.3l0,0v10.6c0,2.4,1.9,4.3,4.3,4.3h10.6c2.4,0,4.3-1.9,4.3-4.3c0,0,0,0,0,0V6.7c0-2.4-1.9-4.3-4.3-4.3H6.7
	 M18.3,4.2c0.8,0,1.5,0.7,1.5,1.5s-0.7,1.5-1.5,1.5s-1.5-0.7-1.5-1.5S17.5,4.2,18.3,4.2 M12,6c3.3,0,6,2.7,6,6s-2.7,6-6,6
	s-6-2.7-6-6S8.7,6,12,6 M12,8.4c-2,0-3.6,1.6-3.6,3.6s1.6,3.6,3.6,3.6s3.6-1.6,3.6-3.6S14,8.4,12,8.4z"/>
</svg>
