<svg id="レイヤー_1" data-name="レイヤー 1" xmlns="http://www.w3.org/2000/svg" viewBox="0 0 24 20.22">
  <path d="M8,13.18a1,1,0,0,0-.08.48,1,1,0,0,0,1.06.89h1.29v4.78a.9.9,0,0,1-.89.89H6.58a.9.9,0,0,1-.89-.89V14.55H1A1,1,0,0,1,.1,13.18L7.06.55A1.07,1.07,0,0,1,8.51.13a1.13,1.13,0,0,1,.42.42l2.91,5.58Zm16,0L16.94.55A1.06,1.06,0,0,0,15.49.14a1,1,0,0,0-.41.41l-3,5.58,3.89,7a1.08,1.08,0,0,1,.08.49,1,1,0,0,1-1.05.89H13.7v4.78a.9.9,0,0,0,.89.89H17.5a.91.91,0,0,0,.9-.89V14.55H23a1,1,0,0,0,.89-1.37Z" fill="#002537"/>
</svg>
