<?xml version="1.0" encoding="UTF-8"?>
<svg id="_イヤー_1" data-name="レイヤー 1" xmlns="http://www.w3.org/2000/svg" viewBox="0 0 699.47 457.45">
  <g id="_イヤー_2" data-name="レイヤー 2" transform="translate(-0.001 0.098)">
    <g id="_イヤー_1-2" data-name="レイヤー 1" transform="translate(0.001 -0.098)">
      <path id="_ス_1" data-name="パス 1" d="M56.37,259.45c-5,0-7.4-2.3-7.4-6.9,0-.8,.1-3,.3-6.7s.4-8.4,.6-13.9,.4-11.4,.6-17.6,.3-12.1,.3-17.6c-7.1,8.6-15.1,16.6-23.8,23.6-8.2,6.6-16,12.4-23.2,17.4-2.9-.4-4.1-1.8-3.7-4.3,10-11.1,18.6-23.3,25.6-36.5,7.6-13.8,13.6-28.5,17.9-43.7h-9.7c-9.5,.2-17.6,.7-24.1,1.4l-3.4-12.3c9,1.2,18.1,2,27.2,2.3h17.3v-15.7c0-7.1-.7-11.6-2-13.5-.6-1-.6-2.2,0-3.2,.7-.5,1.5-.7,2.3-.6h.6c3.3,.1,6.5,.4,9.7,1,4.4,.7,9,1.4,13.7,2.1s8.8,1.5,12,2.3c1.6,.4,2.7,1.8,2.6,3.4,0,2.9-1.2,4.3-3.7,4.3-1.5,.1-2.9,.5-4.2,1.3-.9,.7-1.3,1.9-1.3,3.5v14.9h6.9c3.1,0,5.2-.9,6.3-2.6,1-1.5,2.4-3.6,4.4-6.3s3.4-4.6,4.2-5.7c.8-.9,1.9-1.4,3.1-1.4,.8,0,1.6,.2,2.3,.6,2.6,1.2,5.1,2.8,7.3,4.7,3,2.4,5.8,4.9,8.6,7.4,2.2,1.9,4.2,4.1,5.9,6.4,.6,.8,.9,1.8,.9,2.9,0,1.7-.8,2.6-2.3,2.6h-47.5v15.5c7.6,1.4,15,3.5,22.1,6.3,7.1,2.6,13.6,6.6,19.1,11.9,5.2,5.1,7.7,11.8,7.7,20.2,.2,4-1,8-3.4,11.3-2.1,2.8-4.8,5-8,6.4-2,.9-4.1,1.4-6.3,1.4s-4.6-.6-6.6-1.7c-1.9-1.2-3.2-3.2-3.4-5.4-1.4-8.2-3.9-16.3-7.6-23.8-3.3-6.8-7.9-12.8-13.6-17.7v12c0,8.4,.2,16.9,.6,25.5s.7,16,1,22.3,.4,10.2,.4,11.7c0,3.1-2.8,5.5-8.3,7.4-5.8,2.2-11.9,3.2-18,3.1Zm85.6,0c-5,0-7.4-2.2-7.4-6.6,0-1.1,.1-5.1,.3-11.9,.2-6.8,.5-15.4,.9-25.9s.7-22.2,.9-35.2,.3-26.2,.3-39.8v-34.9c-2.5,3.8-4.9,7.4-7.3,10.9-2.4,3.4-4.6,6.5-6.7,9.2h-1.1c-1.9,.1-3.7-1.2-4-3.2,1-1.8,1.9-3.7,2.7-5.6,.9-2,1.7-4,2.4-6.2l-2.3,.9c-3.6,.7-7.2,1.3-10.9,1.6-4.8,.5-9.2,.7-13.2,.7-1.5,0-3,0-4.4-.1-1.2-.1-2.4-.2-3.5-.4-5.2-.6-8.4-1.7-9.9-3.4-1.4-1.7-2.1-4.5-2.1-8.3V48.45h-11.7c-2,15.7-5.6,28.1-10.9,37.4-5,8.8-11.9,16.4-20.3,22.1-9.1,6-18.6,11.2-28.6,15.5-1.2-.2-2.1-1-2.7-2-.5-.9-.5-1.9-.1-2.9,12.2-7.6,20.7-17.2,25.3-28.6,4.6-11.4,7.2-25.3,7.6-41.5h-1.7c-9.4,.2-16.9,.5-22.6,.9l-3-11.2c6.9,.8,15.4,1.3,25.5,1.7h1.7c0-6.9-.3-14.3-.9-22.3-.2-2.6-.5-5.2-1-7.7-.3-2-.8-4.1-1.5-6-.6-.9-.5-2.1,.3-2.9,.6-.3,1.3-.5,2-.6,2.7,.2,6.6,.6,11.7,1.3s10.3,1.4,15.5,2.3c4,.6,7.9,1.4,11.7,2.4,1.9,.4,3.2,2.1,3.1,4-.2,2.5-1.4,3.7-3.7,3.7s-3.8,.5-4.4,1.6c-.8,1.6-1.3,3.5-1.3,5.3,0,6.5-.3,12.8-.9,18.9h6.6c1.4,0,2.7-.8,3.4-2l4-7.4c.8-1.3,2.2-1.7,4.3-1.1,4.4,1.4,8.8,3,13,4.9,4.4,1.8,8.6,3.8,12.7,6,1.7,1,2.8,2.9,2.9,4.9,0,2-1.2,3.9-3.2,4.6l-1.7,.9c-2.1,1.5-3.2,4-3.2,7.5v25.4c0,2.3,1.1,3.4,3.4,3.4s4.3-2,6-6c.6-1.5,1.4-3.7,2.4-6.6s2.2-5.8,3.3-8.7,1.9-5,2.3-6.2c.8-.5,1.7-.8,2.6-.9,1.4-.1,2.7,.7,3.2,2-.2,1.5-.5,3.7-.9,6.6s-.7,5.6-1,8.2-.5,4.5-.7,5.9c0,2.9,.8,4.7,2.3,5.4,.9,.5,1.7,1.2,2.3,2,2.7-9,5.1-18.2,7.3-27.8s4.1-18.8,5.6-27.9c1.5-9.1,2.6-17,3.2-23.9,.2-1.1,.3-2.3,.3-3.4s.1-2.1,.3-3.2c0-1.3,.3-2.1,.9-2.3,.7-.2,1.3-.2,2,0,2.1,.3,4.2,.8,6.2,1.4,3.5,1,7.5,2.1,12,3.3s8.5,2.4,12.2,3.4c2.2,.5,4.3,1.2,6.3,2.1,1.7,.6,2.2,2,1.4,4.3-.4,1.7-1.2,2.6-2.6,2.6-3.4,0-5.6,1.4-6.6,4.3-2.1,5.9-4.5,12.1-7.3,18.6s-5.8,13.1-9,19.8c1.3,.8,2.6,1.4,4,2s2.7,1.2,4,2h22.6c.9-4.4,1.9-9.7,3-16s2-12.8,2.9-19.6c.8-6.1,1.2-12.3,1.3-18.5V2.65c0-1.3,.3-2.1,.9-2.3,.6-.3,1.3-.4,2-.3,2.9,.6,6.8,1.5,11.7,2.9,4.9,1.4,9.9,2.8,14.7,4.3,3.8,1.1,7.4,2.4,11,4,1,.4,1.4,1.5,1.4,3.4,0,.8-.2,1.7-.6,2.4-.3,.8-1.1,1.3-2,1.3h-1c-1.4-.1-2.8,.3-4,1.1-1.1,1-2.1,2.1-2.9,3.4-4.2,6.5-9.1,13.6-14.6,21.2s-10.6,14.2-15.2,19.8h21.2c3.2,0,5.4-.9,6.6-2.9,1.1-1.5,2.8-3.8,5-6.9,1.6-2.3,3.4-4.5,5.3-6.6,1-1.1,1.8-1.7,2.6-1.7,1,.1,2,.4,2.9,.9,2.8,1.5,5.4,3.3,7.9,5.3,3,2.4,5.8,4.9,8.4,7.4,2.2,2.1,4.2,4.3,6,6.7,.8,1,1.3,2.2,1.4,3.4,.2,1.4-.8,2.7-2.1,2.9h-47.4v45.2h2c3.2,0,5.4-.9,6.6-2.9l8.9-12c.7-1,1.9-1.7,3.2-1.7,.9,0,2.9,1.2,5.7,3.5s5.8,5.1,8.9,8c2.4,2.3,4.7,4.7,6.9,7.3,.7,.9,1.1,2,1.2,3.1,0,2.1-1,3.2-2.9,3.2h-40.3v46.1h2c3.2,0,5.4-1,6.6-2.9,1.2-1.5,2.7-3.5,4.4-6.2,1.4-2,2.8-4,4.4-5.9,.7-1,1.9-1.7,3.2-1.7,.9,0,2.9,1.2,5.7,3.5s5.8,5.1,8.9,8c3,2.9,5.3,5.3,6.9,7,.7,.9,1.1,2,1.2,3.1,0,2.3-1,3.4-2.9,3.4h-40.3v49h3.4c3.2,0,5.4-.9,6.6-2.9,1.1-1.5,2.8-3.8,5-6.9,1.6-2.3,3.4-4.5,5.3-6.6,1.2-1.3,2.1-2,2.9-2,.9,0,1.8,.3,2.6,.9,2.8,1.7,5.4,3.5,7.9,5.6,3,2.4,5.8,4.8,8.4,7.3,2.2,2,4.2,4.2,6,6.6,.8,1.1,1.3,2.4,1.4,3.7,.2,1.4-.8,2.7-2.1,2.9h-98.1v10.9c0,2.1-1.3,3.9-4,5.4-3.1,1.7-6.5,2.8-10,3.4-4.4,1.2-8.5,1.7-12.6,1.7h0Zm46.6-186.9h-20.3v45.3h20.3v-45.3Zm0,53.8h-20.3v46.1h20.3v-46.1Zm0,54.7h-20.3v49h20.3v-49Z" fill="#fbfbfb"/>
      <path id="_ス_2" data-name="パス 2" d="M278.87,457.45c-3.7,0-5.6-1.8-5.6-5.1,0-.8,.2-4.1,.5-10.2s.5-13.1,.7-21.3c-4.4,1.3-10,3.1-16.5,5.3s-13.3,4.6-20.2,7-13.3,4.9-19.2,7.3-10.5,4.4-14,6.3c-1.2,.6-2.2,1.5-3,2.6-.5,.9-.7,2-.6,3,0,1.6-.6,2.7-1.8,3.1-.4,.2-.9,.4-1.3,.5-.9-.1-1.7-.6-2.2-1.3-.9-1.9-2.2-4.8-3.9-8.5s-3.3-7.5-4.9-11.4-2.7-6.7-3.2-8.5c-.3-.7-.3-1.2,0-1.6s.8-.7,1.3-.9l4.7-.4,5.3-.5v-52.3c0-6.6-.5-11.1-1.6-13.6-.4-.7-.5-1.5-.2-2.2,.4-.7,1.2-1.1,2-1.1,1.8,.1,4.3,.4,7.6,.9l9.8,1.3c2.6,.3,5.1,.8,7.6,1.3,1.3,.2,2.3,1.4,2.1,2.8,0,.1,0,.2-.1,.4,.1,1.5-1,2.8-2.5,2.9h-.1c-2.4,.1-3.5,1.4-3.5,3.8v53.8l8.7-.9v-87.9h-7.4v5.1c0,1.3-1,2.5-3,3.5-2.4,1.1-4.9,1.8-7.5,2.2-2.8,.5-5.6,.8-8.5,.8-3.1,0-4.7-1.4-4.7-4.2,0-1.9,.2-7.2,.7-15.9,.4-8.6,.7-18.9,.7-30.8,0-9.7-.2-17.1-.6-22.3-.2-3.6-.6-7.2-1.2-10.7-.3-.7-.2-1.4,.2-2,.6-.3,1.3-.4,2-.2,2.3,.5,4.7,1.1,6.9,1.9,3,1,6,2,9.1,3,2.5,.8,4.9,1.8,7.3,2.9h23.7c1,0,2-.6,2.5-1.6,.3-.6,.8-1.5,1.5-2.7,.5-1,1.2-2,1.9-2.9,.6-1.2,1.6-1.6,3.1-1.1,2.3,.6,4.5,1.4,6.6,2.3,2.6,1.1,5.2,2.3,7.8,3.5,2.6,1.2,4.7,2.2,6.4,3.1,.9,.5,1.4,1.4,1.3,2.5,.1,1.3-.6,2.5-1.8,2.9l-2.1,1.1c-1.8,1.3-2.7,3.9-2.7,7.6,0,1.9,0,3.9,.1,5.8s.1,4,.1,6c1.3,0,2.9,0,4.8,.1s3.9,.1,6.1,.1h7.4c1.2-.1,2.3-.6,3.1-1.6,.4-.9,.8-1.6,1.5-2.3,.7-.8,1.3-1.6,1.9-2.3,.7-1.2,1.4-1.8,2-1.8,1.5,.2,3,.7,4.4,1.3,2.2,.9,4.8,2,7.6,3.3s5.3,2.6,7.4,3.8v-21c0-2.8-.1-5.6-.6-8.4-.2-1.6-.6-3.1-1.2-4.6-.5-.8-.5-1.8,0-2.7,.5-.5,1.1-.7,1.8-.7,2.6,.1,5.2,.2,7.8,.6,3.4,.4,6.9,.8,10.4,1.2,2.6,.3,5.2,.7,7.7,1.3,1.4,.3,2.3,1.5,2.2,2.9,.2,1.7-1.1,3.2-2.7,3.3h-.2c-2.4,.5-3.5,1.6-3.5,3.6-.2,6.5,.8,12.9,2.9,19,2.1,5.8,5,11.3,8.7,16.3,1.8-3.5,3.6-7.6,5.6-12.1,1.8-4.2,3.3-8.5,4.4-13,.3-.8,.5-1.5,.7-2.3s.3-1.6,.5-2.3c.2-.7,.6-1.3,1.1-1.8,.8-.2,1.6-.2,2.5,0,2.8,1,5.6,2.2,8.3,3.5,3.7,1.8,7.4,3.6,11.1,5.5,2.7,1.3,5.3,2.8,7.7,4.6,.6,.3,1,.9,1.1,1.6,.2,.7,.1,1.4-.2,2-.5,1.3-1.8,2-3.1,1.8-1.6-.2-3.1,.1-4.6,.7-1.6,.7-3.1,1.4-4.6,2.2-3.7,2.4-8,4.9-12.9,7.6l-13.3,7.4c5.8,6.5,12.5,12,20,16.4,7.5,4.5,15.5,8,23.8,10.6-3.3,1.7-6.3,3.9-9.1,6.4-3.1,2.7-5.9,5.7-8.5,8.9-2.3,2.8-4.2,5.8-5.8,9-9.1-6.7-16.8-16.1-23.1-28.3-6.5-12.6-10.9-26.1-13.3-40v15.2c0,9.4,.2,17.7,.5,25,.4,7.3,.6,12.1,.6,14.5,0,5.5-2.5,10.2-7.4,14.2-4.9,3.9-12.1,6.6-21.7,7.9-.9-6.8-2.5-11.8-4.9-14.9s-6.8-5.1-13.4-6.1c-.6-.6-.9-1.4-.9-2.2,0-1,.5-1.9,1.3-2.5h18.8c3.7,0,5.6-1.6,5.6-4.9v-37.8c-.9,.5-1.8,1.2-2.3,2.1-.6,1-1.2,2-1.7,3-6,12.7-12.4,22.8-19.3,30.5-7.1,7.9-15.2,14.8-24.1,20.7,2.5,2.2,4.9,4.6,7.1,7.1l.4-.7c.7-.4,1.6-.4,2.2,0,2.6,.5,5.2,1.2,7.7,2.1,3.2,1.1,6.5,2.3,9.8,3.5s6.1,2.2,8.2,3.1h44c1.2-.1,2.2-.6,2.9-1.6,.5-1.1,1-2.1,1.7-3.1,.8-1.3,1.5-2.5,2.1-3.5,.8-1.3,2.4-1.8,3.8-1.1,2.5,.8,5,1.7,7.4,2.8,3,1.3,6,2.6,8.9,3.9,2.5,1.1,4.9,2.3,7.1,3.8,1,.5,1.6,1.5,1.6,2.7,0,1.4-.7,2.7-2,3.4l-2.5,1.8c-2.3,1.5-3.7,4.1-3.6,6.9,0,5.5,.1,11.5,.2,17.9s.4,12.5,.7,18.3,.5,10.7,.7,14.9,.2,6.5,.2,7.3c0,1.5-1.1,2.8-3.2,4-2.5,1.3-5.2,2.3-8.1,2.8-3.1,.7-6.3,1-9.5,1-3.7,0-5.6-1.8-5.6-5.4v-6.5h-49v7.8c0,1.5-1.1,2.8-3.2,4-2.5,1.3-5.2,2.2-8,2.7-3,.9-6.1,1.2-9.2,1.2h0Zm-34.2-185.5h-27.5v53.4h27.5v-53.4Zm1.1,65.1v28.2h1.3c1.7,.1,3.3-.6,4.3-2,.7-1.2,1.8-2.8,3.1-4.8l2.9-4.4c.3-.9,1.1-1.5,2-1.6,.8,0,1.5,.3,2,.9,4.3-4.7,7.9-9.9,11-15.5,3.5-6.3,6.5-12.9,8.9-19.7,2.4-6.3,4.1-12.7,5.1-19.3h-15c-1.4,0-2.8,.1-4.2,.2,.3,8.2,.5,15.5,.8,21.8s.3,10,.3,11.1c0,1.2-1,2.3-3,3.2-2.4,1.1-4.9,1.8-7.5,2.2-2.8,.5-5.6,.8-8.5,.8-1.2,.1-2.5-.3-3.5-1.1h0Zm28.1,35h-28.1v45.8c6.1-.6,11.7-1.1,16.9-1.5,5.1-.4,9.1-.6,11.7-.8,.2-3.1,.2-6.3,.2-9.5v-9.5c0-4.8,0-9.3-.1-13.6s-.3-7.9-.6-10.9h0Zm74.4,6.5h-48.9v24.6h48.9v-24.6Zm0,31.3h-48.9v25.5h48.9v-25.5Z" fill="#fbfbfb"/>
      <path id="_ス_3" data-name="パス 3" d="M265.97,356.65c-2.2-1.8-2.8-2.2-4.3-3.3-.6-.5-1.3-.8-2-.9-.9,0-1.7,.7-2,1.6l-2.9,4.4c-1.3,2-2.4,3.6-3.1,4.8-1,1.4-2.6,2.1-4.3,2h-1.3v-28.2c1,.8,2.3,1.2,3.5,1.1,2.9,0,5.7-.3,8.5-.8,2.6-.4,5.1-1.2,7.5-2.2,2-1,3-2,3-3.2,0-1-.1-4.7-.3-11.1-.2-6.3-.5-13.6-.8-21.8l-.2-7.2c0-2.1,0-4.1-.1-6s-.1-3.9-.1-5.8c0-3.7,.9-6.3,2.7-7.6l2-1.1c1.2-.5,1.9-1.7,1.8-2.9,.1-1-.4-2-1.3-2.5-1.6-.9-3.8-1.9-6.4-3.1s-5.2-2.3-7.8-3.5c-2.1-.9-4.3-1.7-6.6-2.3-1.5-.4-2.5-.1-3.1,1.1-.7,.9-1.4,1.9-1.9,2.9-.7,1.2-1.2,2.1-1.5,2.7-.5,.9-1.4,1.6-2.5,1.6h-23.6c-2.4-1.1-4.8-2.1-7.3-2.9-3.1-1-6.1-2-9.1-3-2.3-.8-4.6-1.4-6.9-1.9-.7-.2-1.4-.1-2,.2-.5,.6-.5,1.4-.2,2,.6,3.5,1,7.1,1.2,10.7,.4,5.2,.6,12.7,.6,22.3,0,11.9-.2,22.2-.7,30.8-.4,8.6-.7,13.9-.7,15.9,0,2.8,1.6,4.2,4.7,4.2,2.8,0,5.7-.3,8.5-.8,2.6-.4,5.1-1.1,7.5-2.2,2-1,3-2.1,3-3.5v-5.1h7.4v87.8l-8.7,.9v-53.8c0-2.4,1.2-3.7,3.5-3.8,1.5,0,2.7-1.3,2.7-2.8v-.1c.4-1.3-.4-2.7-1.7-3-.1,0-.2-.1-.4-.1-2.5-.6-5-1-7.6-1.3l-9.8-1.3c-3.3-.5-5.8-.7-7.6-.9-.8,0-1.6,.4-2,1.1-.3,.7-.2,1.6,.2,2.2,1,2.6,1.6,7.1,1.6,13.6v52.3l-5.3,.5-4.7,.4c-.5,.1-1,.5-1.3,.9-.3,.3-.3,.8,0,1.6,.6,1.8,1.7,4.6,3.2,8.5s3.2,7.7,4.9,11.4,3,6.5,3.9,8.5c.5,.8,1.3,1.3,2.2,1.4,.5-.1,.9-.2,1.3-.5,1.2-.4,1.8-1.5,1.8-3.1-.2-1,0-2.1,.6-3,.8-1.1,1.8-1.9,3-2.6,3.4-1.8,8.1-3.9,14-6.3s12.3-4.8,19.2-7.3,13.7-4.8,20.2-7c6.6-2.2,12.4-4,16.5-5.3,2.3-.8,6.8-2,8-4,.5-.8-.6-1.7-1.9-1.6-2.6,.3-3.6,.2-6.1,.4-3.2,.2-6.6,.4-11.7,.8s-10.8,.9-16.9,1.5v-45.8h29.5c.5,0,2.5,0,2.5-1.6,0-1.4-.6-2.6-1.7-3.5-3.2-3.8-6.6-7.3-10.3-10.5Zm-21.1-31.3h-27.5v-53.4h27.5v53.4Z" fill="#fb0074"/>
      <g isolation="isolate">
        <path d="M355.77,120.05V56.35c-1.1,2.7-2.4,5.4-3.9,8-1.5,2.7-3,5.2-4.8,7.7h6.5v7.8h-12.6c-.9,1-1.8,2.1-2.8,3l-3,3h15.1v32.4h-28.5v-22.5c-1,.6-2.1,1.1-3.2,1.7s-2.2,1.1-3.3,1.7c-.4-1-1.1-2.3-2.1-3.7-1-1.4-1.9-2.5-2.7-3.4,3.5-1.5,6.9-3.3,10.2-5.3,3.2-2.1,6.3-4.4,9.2-7h-15.6v-7.7h13.3v-6.7h-10.8v-7.9h10.8v-8.4h8.7v8.4h6.7v6.2c.9-1.7,1.7-3.4,2.5-5.1,.8-1.7,1.5-3.5,2.2-5.3l8.2,2.9v-4.3h25.7l3.5,2.4c-.4,1-1,2.3-1.6,3.9-.7,1.6-1.4,3.4-2.3,5.3-.8,1.9-1.7,3.8-2.5,5.6-.8,1.8-1.5,3.5-2.2,5s-1.2,2.5-1.6,3.3c2.7,2.3,4.9,5,6.9,8.2,1.9,3.1,2.9,7,2.9,11.4,0,4.8-1.2,8.5-3.6,11s-5.9,3.8-10.4,3.8h-3.2c-.1-1.3-.4-2.9-.7-4.7-.4-1.8-.8-3.3-1.3-4.4h3.4c4.5,0,6.8-2.1,6.8-6.3,0-3.8-.8-7.1-2.4-10.1-1.6-2.9-4-5.7-7.3-8.4,.3-.7,.8-1.9,1.5-3.5s1.4-3.4,2.2-5.4c.8-2,1.5-3.8,2.1-5.5s1.1-3,1.3-3.9h-8.6v60.4h-8.7v.1Zm-25.3-21.4h11.1v-5.8h-11.1v5.8Zm0,12.6h11.1v-5.9h-11.1v5.9Zm5.7-39.2h1c.9-1,1.7-2.1,2.5-3.3,.8-1.1,1.5-2.3,2.2-3.4h-5.7v6.7Z" fill="#fb0074"/>
        <path d="M422.07,119.95v-37h-13.3v30.7h-9.5v-39.6h22.8v-6.9h-30.7v-8.7h30.7v-9.6h9.6v9.7h30.7v8.7h-30.7v6.9h23.6v30.7c0,2.9-.8,5-2.5,6.4-1.7,1.3-4.2,2-7.6,2h-6.1c-.1-.9-.2-1.9-.4-3.1-.2-1.2-.5-2.4-.7-3.5-.3-1.2-.5-2.1-.9-2.8h5.5c1.1,0,1.9-.2,2.3-.5,.5-.3,.7-1.1,.7-2.1v-18.3h-13.9v37h-9.6Z" fill="#fb0074"/>
        <path d="M472.87,120.45c-.4-1.2-1-2.8-2-4.6-1-1.8-2-3.2-3-4.3,12.5-2.3,22.7-6.8,30.7-13.6-3-3.7-5.7-7.8-7.9-12.4-2.3-4.5-4.3-9.7-6-15.3h-14.8v-8.4h30.1v-13.5h10.1v13.5h29.9v8.3h-14c-1.7,5.7-3.7,10.8-6,15.3-2.3,4.6-4.9,8.6-7.8,12.2,4,3.3,8.5,6.1,13.5,8.4s10.6,3.9,16.6,5c-.7,.7-1.4,1.7-2.1,2.8-.8,1.1-1.4,2.3-2,3.5s-1,2.2-1.3,3c-6.7-1.9-12.6-4.2-17.7-6.7-5.2-2.5-9.8-5.6-13.8-9-4.1,3.4-8.7,6.4-14,9-5.5,2.6-11.6,4.8-18.5,6.8Zm32.3-29.5c4.7-5.9,8-12.8,9.9-20.7h-20.3c2,7.9,5.5,14.8,10.4,20.7Z" fill="#fb0074"/>
        <path d="M559.97,119.45v-39.7c-1.5,1.8-2.9,3.4-4.4,5s-3,3-4.4,4.2c-.7-.9-1.7-1.9-3-3.1s-2.5-2.1-3.6-2.8c1.7-1.4,3.4-3.1,5.3-5.1,1.9-2.1,3.7-4.4,5.5-6.9s3.5-5,5.1-7.6,3-5.1,4.2-7.5,2.1-4.5,2.6-6.3l8.6,3.2c-1.6,4.4-3.8,9-6.6,13.6v53h-9.3Zm29.8-1.3c-3.2,0-5.4-.5-6.6-1.4-1.2-1-1.9-2.6-1.9-4.8V50.45h9.4v24.9c2.5-1.1,5.1-2.4,7.7-3.7s5-2.7,7.3-4.1,4.2-2.8,5.7-4.1l6.2,7.5c-2.2,1.6-4.9,3.2-7.9,4.9s-6.2,3.3-9.5,4.9c-3.3,1.5-6.5,2.9-9.5,4v22.2c0,.7,.2,1.3,.5,1.6,.4,.3,1.1,.5,2.3,.5h10.3c1.6,0,2.8-.3,3.7-.9s1.5-1.7,2-3.2c.4-1.6,.8-3.8,1.1-6.7,1.4,.6,2.9,1.2,4.8,1.8,1.8,.6,3.3,1.1,4.4,1.4-.6,4.6-1.4,8.1-2.3,10.5-1,2.4-2.4,4.1-4.1,5-1.8,.9-4.1,1.3-6.9,1.3h-16.7v-.1Z" fill="#fb0074"/>
        <path d="M650.57,120.65c-.2-1.2-.4-2.8-.8-4.6-.4-1.8-.8-3.2-1.2-4.3h5.7c1.1,0,1.8-.2,2.1-.5,.3-.4,.5-1,.5-1.8v-12.2h-26.8v-7.9c-.2,.2-.5,.3-.7,.4-.3,.1-.6,.2-.8,.4-.7-.9-1.6-2-2.7-3.2-1.1-1.2-2.2-2.2-3.3-3,2.1-.9,4.3-2.1,6.4-3.4,2.1-1.3,4.2-2.7,6.2-4.2-.7-.8-1.5-1.6-2.3-2.6-.9-.9-1.7-1.8-2.6-2.5-.3,.3-.6,.5-.9,.8-.3,.3-.7,.5-1,.8-.7-1-1.5-2.1-2.6-3.2-1-1.1-2.1-2-3.1-2.7,2.3-1.5,4.5-3.4,6.7-5.7s4.2-4.7,5.9-7.2c1.8-2.5,3.1-4.9,4.1-7.1l8,2.4-1.5,3h13l2.5,1.6c-.2-.7-.4-1.4-.7-2-.2-.7-.5-1.4-.7-2l8.5-1.8c.5,1.8,1.1,3.5,1.8,5.1,.7,1.7,1.5,3.3,2.4,4.8v-6.2h21l3,2.6c-.9,1.6-2,3.4-3.5,5.7-1.4,2.2-2.9,4.4-4.4,6.6s-2.9,4.1-4.1,5.6c4.6,4,9.6,7,14.8,9-.6,.5-1.3,1.1-2.1,2s-1.6,1.8-2.3,2.8-1.3,1.8-1.7,2.6c-2.9-1.5-5.6-3.1-8.3-5s-5.3-4-7.8-6.3v5.2h-31.7v-4.4c-4.4,4.2-9.2,7.6-14.3,10.5h60.6v8.3h-25.6v15.1c0,2.9-.8,4.9-2.4,6.2-1.6,1.3-4.1,1.9-7.4,1.9h-5.9v.4Zm-18.2-2.2c-.5-1-1.3-2.3-2.4-3.8s-2.1-2.7-3-3.7c1.4-.5,3-1.2,4.8-2.2,1.8-.9,3.6-2,5.4-3.1,1.8-1.1,3.5-2.3,5.1-3.5s2.8-2.3,3.7-3.3l6.2,6.1c-1.7,1.8-3.7,3.5-6,5.3s-4.6,3.4-7,4.8c-2.5,1.4-4.8,2.5-6.8,3.4Zm8-46.4c.4-.4,.8-.8,1.2-1.2,.4-.4,.8-.8,1.2-1.2-.7-.7-1.6-1.5-2.7-2.4-1-.9-2.1-1.7-3-2.4-.4,.4-.7,.7-1.1,1.1-.3,.4-.7,.8-1.1,1.1,.9,.7,1.8,1.5,2.8,2.5,1.1,.8,2,1.7,2.7,2.5Zm6.8-7.8c.6-.8,1.1-1.7,1.7-2.5s1-1.7,1.4-2.5h-8.7l-.4,.5c.9,.6,2,1.4,3.1,2.2,1.1,.8,2.1,1.6,2.9,2.3Zm2.1,10.2h24.6c-2.6-2.8-5-5.9-7.1-9.2-2.1-3.4-3.9-7-5.4-10.9-1.2,3.6-2.8,7.2-5,10.6-2,3.3-4.4,6.5-7.1,9.5Zm40.7,44c-2-.8-4.3-2-6.7-3.4s-4.8-3-7.1-4.8-4.3-3.5-6-5.3l6-5.8c1,1,2.3,2.1,3.9,3.3s3.3,2.3,5.1,3.4,3.6,2.1,5.4,3c1.8,.9,3.4,1.6,4.8,2.1-.6,.5-1.2,1.2-1.9,2.1s-1.4,1.8-2,2.8c-.6,1-1.1,1.9-1.5,2.6Zm-11.4-51.7c.9-1.2,1.9-2.6,2.9-4s1.7-2.5,2.2-3.3h-10.4c1.6,2.7,3.4,5.1,5.3,7.3Z" fill="#fb0074"/>
      </g>
      <path id="_ス_4" data-name="パス 4" d="M313.27,141.05v85.9h236.5v-85.9h-236.5Zm51.6,31c0,2.4-.6,4.8-1.7,6.9-1.2,2.2-2.7,4.3-4.4,6.1-1.8,2-3.9,4.1-6.3,6.4-2.3,2.3-4.3,4.4-6.1,6.5-1.4,1.4-2.5,3.1-3.1,4.9h20.6v8.7h-30.7v-2.9c0-2.5,.4-5,1.2-7.4,.9-2.7,2.3-5.2,4-7.5,2.3-3.1,4.9-5.9,7.7-8.5,1.6-1.5,3.1-3.1,4.5-4.6,1.3-1.4,2.5-2.9,3.5-4.6,.8-1.3,1.3-2.7,1.4-4.3,.1-2.5-.5-4.4-1.6-5.6-1.3-1.3-3.1-2-5-1.8-1.8-.1-3.6,.7-4.6,2.3-1.1,2-1.6,4.3-1.4,6.5h-9.5c0-5.7,1.4-10.1,4.3-13.2,2.9-3.1,7-4.8,11.2-4.7,2.9,0,5.8,.6,8.3,2,2.5,1.3,4.5,3.2,5.8,5.7,1.4,2.8,2.1,5.9,1.9,9.1h0Zm54.4,27.4c-1,4.3-2.7,7.5-5.1,9.6s-5.8,3.3-10.1,3.3-7.8-1.1-10.2-3.3-4.1-5.4-5.1-9.6c-1-5.2-1.5-10.5-1.4-15.8-.1-5.3,.4-10.6,1.4-15.9,1-4.3,2.7-7.5,5.1-9.6s5.8-3.3,10.2-3.3,7.7,1.1,10.1,3.3,4.1,5.4,5.1,9.6c1.1,5.2,1.6,10.5,1.5,15.9,.1,5.3-.4,10.6-1.5,15.8h0Zm55.7-27.4c0,2.4-.6,4.8-1.7,6.9-1.2,2.2-2.7,4.3-4.4,6.1-1.8,2-3.9,4.1-6.3,6.4-2.3,2.3-4.3,4.4-6.1,6.5-1.4,1.4-2.5,3.1-3.2,4.9h20.6v8.7h-30.7v-2.9c0-2.5,.4-5,1.2-7.4,.9-2.7,2.3-5.2,4-7.5,2.3-3.1,4.9-5.9,7.7-8.5,1.6-1.5,3.1-3.1,4.5-4.6,1.3-1.4,2.5-2.9,3.5-4.6,.8-1.3,1.3-2.7,1.4-4.3,.1-2.5-.5-4.4-1.6-5.6-1.3-1.3-3.1-2-5-1.8-1.8-.1-3.6,.7-4.6,2.3-1.1,2-1.6,4.3-1.4,6.5h-9.5c0-5.7,1.5-10.1,4.4-13.2,2.9-3.1,7-4.8,11.2-4.7,2.9,0,5.8,.6,8.3,2,2.5,1.3,4.5,3.2,5.8,5.7,1.5,2.8,2.2,5.9,1.9,9.1h0Zm53,0c0,2.4-.6,4.8-1.7,6.9-1.2,2.2-2.7,4.3-4.4,6.1-1.8,2-4,4.1-6.3,6.4-2.3,2.3-4.3,4.4-6.1,6.5-1.4,1.4-2.5,3.1-3.2,4.9h20.6v8.7h-30.8v-2.9c0-2.5,.4-5,1.2-7.4,.9-2.7,2.3-5.2,4-7.5,2.3-3.1,4.9-5.9,7.7-8.5,1.6-1.5,3.1-3.1,4.5-4.6,1.3-1.4,2.5-2.9,3.5-4.6,.8-1.3,1.3-2.7,1.4-4.3,.1-2.5-.5-4.4-1.6-5.6-1.3-1.3-3.1-2-5-1.8-1.8-.1-3.6,.7-4.6,2.3-1.1,2-1.6,4.3-1.4,6.5h-9.5c0-5.7,1.5-10.1,4.3-13.2,2.9-3.1,7-4.8,11.2-4.7,2.9,0,5.8,.6,8.3,2,2.4,1.3,4.5,3.3,5.8,5.7,1.6,2.8,2.3,5.9,2.1,9.1h0Z" fill="#fb0074"/>
      <path id="_ス_5" data-name="パス 5" d="M408.77,165.65c-1.1-1.2-2.7-1.8-4.3-1.7-1.6-.1-3.2,.6-4.3,1.7-1.1,1.1-1.8,3.1-2.3,6-.5,4-.8,8-.7,12-.1,4,.2,8,.7,11.9,.4,2.8,1.2,4.8,2.3,6,1.1,1.2,2.7,1.8,4.3,1.7,1.6,.1,3.2-.5,4.3-1.7,1-1.1,1.8-3.1,2.2-6,.5-4,.8-7.9,.7-11.9,.1-4-.2-8-.7-12-.5-2.8-1.2-4.8-2.2-6Z" fill="#fb0074"/>
    </g>
  </g>
</svg>