<svg xmlns="http://www.w3.org/2000/svg" width="700" height="457.623" viewBox="0 0 700 457.623">
  <g id="レイヤー_2" data-name="レイヤー 2" transform="translate(-0.001 0.098)">
    <g id="レイヤー_1" data-name="レイヤー 1" transform="translate(0.001 -0.098)">
      <path id="パス_1" data-name="パス 1" d="M56.467,259.5c-4.97,0-7.441-2.294-7.441-6.875,0-.762.089-3,.283-6.724s.381-8.354.576-13.891.372-11.437.611-17.638.292-12.066.292-17.612A168.318,168.318,0,0,1,27.02,220.39Q14.671,230.32,3.792,237.744c-2.861-.381-4.111-1.816-3.721-4.3a180.547,180.547,0,0,0,25.62-36.5,211.772,211.772,0,0,0,17.895-43.657H33.841q-14.325.275-24.052,1.426L6.37,142.413a255.647,255.647,0,0,0,27.2,2.286H51.027V128.957q0-10.631-2-13.457a3.092,3.092,0,0,1,0-3.154,3.357,3.357,0,0,1,2.286-.567h.576a72.564,72.564,0,0,1,9.745,1q6.582,1.01,13.74,2.144t12.022,2.294a3.366,3.366,0,0,1,2.578,3.437c0,2.861-1.249,4.288-3.721,4.288a8.248,8.248,0,0,0-4.155,1.293c-.886.673-1.285,1.86-1.285,3.544v14.883H87.7q4.58,0,6.3-2.578,1.435-2.286,4.429-6.3c2-2.658,3.384-4.58,4.155-5.723a4.43,4.43,0,0,1,3.145-1.435,4.093,4.093,0,0,1,2.294.576,31.546,31.546,0,0,1,7.3,4.722q4.429,3.588,8.584,7.441a40.555,40.555,0,0,1,5.873,6.449,4.651,4.651,0,0,1,.886,2.861q0,2.578-2.286,2.578H80.8v15.494a127.3,127.3,0,0,1,22.147,6.3,54.252,54.252,0,0,1,19.073,11.862q7.734,7.583,7.734,20.181a17.92,17.92,0,0,1-3.437,11.3,20.464,20.464,0,0,1-8.017,6.44,16.354,16.354,0,0,1-6.3,1.435,12.553,12.553,0,0,1-6.582-1.719,7.238,7.238,0,0,1-3.437-5.439,86,86,0,0,0-7.583-23.76,56.617,56.617,0,0,0-13.6-17.718v12.03q0,12.6.567,25.478t1.019,22.307q.434,9.452.434,11.738,0,4.589-8.3,7.441A54.925,54.925,0,0,1,56.467,259.5Zm85.595,0q-7.441,0-7.441-6.591,0-1.719.283-11.88t.886-25.9q.576-15.751.886-35.214t.283-39.794V105.2q-3.721,5.723-7.3,10.879t-6.724,9.16h-1.143a3.818,3.818,0,0,1-4.013-3.154,60.667,60.667,0,0,0,2.72-5.581c.886-2,1.674-4.049,2.436-6.2l-2.294.886a92.477,92.477,0,0,1-10.879,1.577q-7.149.718-13.164.718c-1.533,0-3,0-4.429-.142a28.051,28.051,0,0,1-3.544-.434q-7.734-.886-9.878-3.437t-2.144-8.3V48.509H65.051Q62.19,71.985,54.172,85.867A66.043,66.043,0,0,1,33.85,108.014a181.438,181.438,0,0,1-28.632,15.5,4.066,4.066,0,0,1-2.72-2,3.366,3.366,0,0,1-.142-2.87q18.329-11.463,25.336-28.623t7.592-41.513H33.567q-14.033.292-22.617.886L8.088,38.206q10.294,1.143,25.478,1.719h1.719q0-10.312-.886-22.333a66.335,66.335,0,0,0-1.01-7.725,39.253,39.253,0,0,0-1.5-6.015A2.268,2.268,0,0,1,32.176.99,4.642,4.642,0,0,1,34.134.414q4.013.292,11.738,1.293T61.33,3.993A114.555,114.555,0,0,1,73.068,6.429a3.818,3.818,0,0,1,3.118,4q-.257,3.73-3.694,3.73c-2.286,0-3.765.532-4.429,1.577a12,12,0,0,0-1.293,5.315q0,9.745-.886,18.9h6.582a4.173,4.173,0,0,0,3.437-2l4.013-7.45c.762-1.329,2.188-1.719,4.288-1.143A132,132,0,0,1,97.236,34.22a131.112,131.112,0,0,1,12.739,6.015,5.857,5.857,0,0,1,2.861,4.864,4.757,4.757,0,0,1-3.154,4.58l-1.71.886c-2.108,1.533-3.154,4.013-3.154,7.45V83.44q0,3.428,3.437,3.428t6.024-6.006c.567-1.524,1.382-3.721,2.427-6.582s2.153-5.776,3.3-8.735,1.9-5.014,2.286-6.2a5.209,5.209,0,0,1,2.578-.886,3.163,3.163,0,0,1,3.154,2q-.292,2.294-.886,6.591c-.39,2.861-.718,5.581-1,8.159s-.532,4.536-.718,5.865q0,4.3,2.286,5.439a8.54,8.54,0,0,1,2.294,2q4-13.448,7.3-27.764t5.581-27.914q2.286-13.59,3.154-23.919a21.5,21.5,0,0,0,.284-3.437,15.874,15.874,0,0,1,.283-3.154c0-1.329.284-2.091.886-2.286a3.641,3.641,0,0,1,2,0,45.1,45.1,0,0,1,6.2,1.426c3.544.966,7.539,2.055,12.022,3.3s8.54,2.392,12.172,3.437a37.337,37.337,0,0,1,6.3,2.144c1.719.576,2.188,2,1.426,4.3q-.576,2.578-2.578,2.578-5.147,0-6.582,4.3-3.154,8.859-7.3,18.6t-9.027,19.844a40.3,40.3,0,0,0,4,2.038,41.15,41.15,0,0,1,3.978,1.967h22.617q1.417-6.582,3-16.026t2.888-19.6a147.949,147.949,0,0,0,1.293-18.462V2.708c0-1.338.283-2.1.886-2.294a2.773,2.773,0,0,1,2-.283q4.288.886,11.738,2.861t14.741,4.3a97.658,97.658,0,0,1,11.021,4c.957.39,1.435,1.533,1.435,3.437a6.042,6.042,0,0,1-.576,2.436,2.02,2.02,0,0,1-2,1.285h-1.143a6.343,6.343,0,0,0-4.013,1.143,13.8,13.8,0,0,0-2.888,3.428q-6.3,9.745-14.6,21.182T201.319,63.959h21.191c3.242,0,5.439-.948,6.582-2.861q1.71-2.286,5.014-6.875a56.7,56.7,0,0,1,5.315-6.582c.957-1.143,1.772-1.719,2.578-1.719a6.83,6.83,0,0,1,2.861.886,45.817,45.817,0,0,1,7.876,5.315c2.959,2.392,5.767,4.864,8.443,7.441a48.937,48.937,0,0,1,6.015,6.733,6.343,6.343,0,0,1,1.426,3.437,2.529,2.529,0,0,1-2.861,2.861H219.072v45.216h2c3.242,0,5.439-.948,6.582-2.861l8.859-12.022a4.1,4.1,0,0,1,3.154-1.719c.948,0,2.861,1.2,5.723,3.544s5.82,5.058,8.859,7.973a84.828,84.828,0,0,1,6.866,7.3,4.943,4.943,0,0,1,1.152,3.145c0,2.108-.957,3.154-2.87,3.154H219.072v46.066h2q4.864,0,6.582-2.861c1.152-1.533,2.658-3.544,4.429-6.157a68.317,68.317,0,0,1,4.429-5.873,4.1,4.1,0,0,1,3.154-1.719c.948,0,2.861,1.2,5.723,3.544s5.82,5.058,8.859,7.973,5.315,5.315,6.866,7.016a4.943,4.943,0,0,1,1.152,3.145q0,3.437-2.87,3.437H219.072v48.954h3.437c3.242,0,5.439-.948,6.582-2.861q1.71-2.286,5.014-6.874a56.7,56.7,0,0,1,5.315-6.582c1.152-1.329,2.1-2,2.861-2a4.163,4.163,0,0,1,2.578.886A65.819,65.819,0,0,1,252.736,218q4.429,3.544,8.443,7.3a43.805,43.805,0,0,1,6.015,6.582,6.582,6.582,0,0,1,1.426,3.721,2.533,2.533,0,0,1-2.861,2.87H168.4v10.879q0,3.136-4,5.439a32.529,32.529,0,0,1-10.019,3.428,65.86,65.86,0,0,1-12.314,1.285ZM188.695,72.561H168.4v45.251h20.3Zm0,53.818H168.4v46.066h20.3Zm0,54.677H168.4V230.01h20.3Z" transform="translate(-0.001 0.098)" fill="#fbfbfb"/>
      <path id="パス_2" data-name="パス 2" d="M304.3,490.418c-3.73,0-5.59-1.772-5.59-5.147,0-.753.151-4.128.452-10.17s.514-13.147.664-21.332c-4.429,1.329-9.975,3.127-16.531,5.315s-13.288,4.589-20.225,7.043-13.341,4.89-19.233,7.273-10.533,4.429-13.962,6.254a9.08,9.08,0,0,0-3.021,2.569,4.429,4.429,0,0,0-.558,3.021c0,1.63-.594,2.658-1.772,3.127a3.544,3.544,0,0,1-1.338.452,3.057,3.057,0,0,1-2.232-1.347c-.886-1.949-2.206-4.766-3.916-8.5s-3.349-7.53-4.917-11.4-2.658-6.688-3.234-8.5c-.3-.726-.3-1.249,0-1.559a2.578,2.578,0,0,1,1.329-.886l4.7-.434,5.315-.452V403.486c0-6.564-.523-11.091-1.568-13.643a2.454,2.454,0,0,1-.213-2.232,2.179,2.179,0,0,1,2-1.107c1.772.142,4.323.434,7.61.886l9.825,1.346a75.933,75.933,0,0,1,7.6,1.329,2.454,2.454,0,0,1,2.011,3.127,2.723,2.723,0,0,1-2.658,2.915c-2.383.142-3.544,1.417-3.544,3.8v53.862l8.708-.886V365.029h-7.388v5.147c0,1.347-1.01,2.489-3.021,3.455a27.983,27.983,0,0,1-7.486,2.241,49.168,49.168,0,0,1-8.487.78c-3.136,0-4.7-1.417-4.7-4.235q0-2.923.673-15.884t.664-30.847q0-14.511-.558-22.333a83.416,83.416,0,0,0-1.223-10.728,1.869,1.869,0,0,1,.213-2.02,3.154,3.154,0,0,1,2.02-.221,56.689,56.689,0,0,1,6.919,1.9q4.474,1.479,9.063,3.021a63.839,63.839,0,0,1,7.255,2.906h23.7a2.746,2.746,0,0,0,2.454-1.559c.3-.6.78-1.5,1.453-2.658a20.571,20.571,0,0,1,1.9-2.915c.594-1.2,1.639-1.559,3.127-1.125a47.364,47.364,0,0,1,6.591,2.348q3.907,1.683,7.822,3.473c2.6,1.2,4.731,2.241,6.37,3.127a2.5,2.5,0,0,1,1.338,2.454,2.782,2.782,0,0,1-1.772,2.915l-2.055,1.09c-1.772,1.347-2.658,3.871-2.658,7.6,0,1.949,0,3.871.106,5.82s.106,3.951.106,6.024q2.02,0,4.81.106c1.869.089,3.916.124,6.148.124h7.379a4.536,4.536,0,0,0,3.127-1.559,8.859,8.859,0,0,1,1.453-2.348c.664-.815,1.3-1.6,1.9-2.348.744-1.2,1.417-1.772,2.011-1.772a15.831,15.831,0,0,1,4.43,1.346c2.241.886,4.766,2.02,7.61,3.349s5.315,2.613,7.371,3.8v-21.04a50.068,50.068,0,0,0-.567-8.381,18.689,18.689,0,0,0-1.222-4.58,2.756,2.756,0,0,1,0-2.658,2.366,2.366,0,0,1,1.772-.673,74.148,74.148,0,0,1,7.822.567c3.428.363,6.883.78,10.391,1.214A66.312,66.312,0,0,1,364.6,291.3a2.808,2.808,0,0,1,2.224,2.906,3.056,3.056,0,0,1-2.9,3.349c-2.383.461-3.544,1.639-3.544,3.588a52.179,52.179,0,0,0,2.906,18.985A63.285,63.285,0,0,0,372,336.442q2.658-5.315,5.581-12.066a83.207,83.207,0,0,0,4.429-12.961,11.7,11.7,0,0,0,.673-2.348c.151-.824.3-1.6.452-2.348a3.349,3.349,0,0,1,1.116-1.772,6.645,6.645,0,0,1,2.463,0,83.852,83.852,0,0,1,8.265,3.543q5.581,2.658,11.065,5.475a51.578,51.578,0,0,1,7.707,4.58,2.082,2.082,0,0,1,1.116,1.568,3.163,3.163,0,0,1-.213,2.02,2.817,2.817,0,0,1-3.136,1.772,9.418,9.418,0,0,0-4.58.673,46.74,46.74,0,0,0-4.58,2.241q-5.59,3.544-12.854,7.6l-13.288,7.362a81.964,81.964,0,0,0,20,16.424,110.379,110.379,0,0,0,23.8,10.631,43.826,43.826,0,0,0-9.071,6.361,67.953,67.953,0,0,0-8.5,8.947,47.585,47.585,0,0,0-5.811,9.036Q383,383.155,373.5,364.835a138.108,138.108,0,0,1-13.288-40.007v15.2q0,14.068.549,25.026t.567,14.529q0,8.265-7.38,14.174t-21.678,7.929c-.886-6.839-2.534-11.809-4.917-14.856s-6.848-5.094-13.4-6.148a2.985,2.985,0,0,1-.886-2.241,2.817,2.817,0,0,1,1.347-2.454h18.772q5.59,0,5.59-4.908V333.288a6.59,6.59,0,0,0-2.348,2.135,33.948,33.948,0,0,0-1.683,3.012q-8.93,18.985-19.321,30.5a129.675,129.675,0,0,1-24.07,20.686,82.387,82.387,0,0,1,7.149,7.149l.443-.673a2.055,2.055,0,0,1,2.241,0,45.189,45.189,0,0,1,7.707,2.126c3.2,1.107,6.485,2.268,9.833,3.455s6.068,2.232,8.159,3.127h44.029a3.782,3.782,0,0,0,2.9-1.568,25.471,25.471,0,0,1,1.674-3.127c.824-1.329,1.533-2.525,2.126-3.543a2.932,2.932,0,0,1,3.809-1.125,78.571,78.571,0,0,1,7.379,2.782c2.977,1.267,5.953,2.56,8.939,3.907a50.5,50.5,0,0,1,7.149,3.8,2.915,2.915,0,0,1,1.568,2.658,3.641,3.641,0,0,1-2.011,3.366l-2.454,1.772a7.92,7.92,0,0,0-3.588,6.928c0,5.51.08,11.517.23,17.877s.372,12.518.673,18.338.514,10.746.673,14.856.213,6.511.213,7.255c0,1.5-1.081,2.844-3.234,4.022a28.678,28.678,0,0,1-8.053,2.8,46,46,0,0,1-9.488,1c-3.73,0-5.6-1.772-5.6-5.369v-6.467H324.863v7.814c0,1.5-1.081,2.826-3.242,4.022a26.647,26.647,0,0,1-7.973,2.658,50.961,50.961,0,0,1-9.346.957Zm-34.213-185.5H242.626v53.41h27.463Zm1.116,65.033v28.154h1.338a4.748,4.748,0,0,0,4.252-2.011q1.116-1.772,3.127-4.8l2.906-4.367a2.179,2.179,0,0,1,2.011-1.568,2.791,2.791,0,0,1,2.011.886,79.46,79.46,0,0,0,10.95-15.53,138.019,138.019,0,0,0,8.939-19.684,100.532,100.532,0,0,0,5.147-19.33H296.922a28.162,28.162,0,0,0-4.243.239c.3,8.177.549,15.459.78,21.784s.337,10.019.337,11.056c0,1.2-1.01,2.277-3.021,3.242a29.039,29.039,0,0,1-7.477,2.232,48.433,48.433,0,0,1-8.5.788,4.855,4.855,0,0,1-3.579-1.09Zm28.154,35.09H271.222v45.809q9.16-.886,16.876-1.453c5.129-.363,9.054-.638,11.729-.78.151-3.127.221-6.3.221-9.5v-9.514c0-4.766,0-9.293-.106-13.616s-.266-7.973-.567-10.95Zm74.415,6.476h-48.91V436.1H373.8Zm0,31.281h-48.91V468.28H373.8Z" transform="translate(-25.327 -32.795)" fill="#fbfbfb"/>
      <path id="パス_3" data-name="パス 3" d="M291.151,389.827c-2.232-1.772-2.791-2.232-4.288-3.349a4.208,4.208,0,0,0-2.011-.886,2.179,2.179,0,0,0-2.011,1.568l-2.906,4.367q-2,3.021-3.127,4.8a4.748,4.748,0,0,1-4.252,2.011h-1.338V370.16a4.873,4.873,0,0,0,3.544,1.116,48.436,48.436,0,0,0,8.5-.788,29.038,29.038,0,0,0,7.477-2.232c2.011-.966,3.021-2.038,3.021-3.242q0-1.559-.337-11.056c-.23-6.325-.478-13.607-.78-21.784l-.23-7.167c0-2.073,0-4.093-.106-6.024s-.106-3.871-.106-5.82c0-3.73.886-6.254,2.658-7.6l2.011-1.107a2.782,2.782,0,0,0,1.772-2.915,2.5,2.5,0,0,0-1.338-2.454c-1.639-.886-3.765-1.922-6.37-3.127s-5.218-2.348-7.822-3.473a47.367,47.367,0,0,0-6.591-2.348c-1.488-.434-2.534-.071-3.127,1.125a20.567,20.567,0,0,0-1.9,2.915c-.673,1.178-1.152,2.073-1.453,2.658a2.746,2.746,0,0,1-2.454,1.559H243.951a63.84,63.84,0,0,0-7.255-2.906q-4.58-1.55-9.063-3.021a56.7,56.7,0,0,0-6.919-1.9,3.154,3.154,0,0,0-2.02.221,1.869,1.869,0,0,0-.213,2.02,83.41,83.41,0,0,1,1.223,10.728q.558,7.822.558,22.333,0,17.9-.664,30.847t-.673,15.884c0,2.817,1.559,4.235,4.7,4.235a49.169,49.169,0,0,0,8.487-.78,27.986,27.986,0,0,0,7.486-2.241c2.011-.966,3.021-2.108,3.021-3.455v-5.147h7.371v87.827l-8.708.886V400.1c0-2.383,1.187-3.659,3.544-3.8a2.743,2.743,0,0,0,2.658-2.915,2.454,2.454,0,0,0-2.011-3.127,75.93,75.93,0,0,0-7.6-1.329l-9.825-1.347c-3.287-.452-5.811-.744-7.61-.886a2.179,2.179,0,0,0-2,1.107,2.454,2.454,0,0,0,.213,2.232c1.045,2.551,1.568,7.087,1.568,13.643v52.268l-5.315.452-4.7.434a2.578,2.578,0,0,0-1.329.886c-.3.31-.3.833,0,1.559.585,1.772,1.665,4.624,3.233,8.5s3.207,7.672,4.917,11.4,3.021,6.547,3.916,8.5a3.056,3.056,0,0,0,2.206,1.382,3.545,3.545,0,0,0,1.338-.452c1.2-.443,1.772-1.5,1.772-3.127a4.43,4.43,0,0,1,.558-3.021,9.08,9.08,0,0,1,3.021-2.569q5.138-2.658,13.962-6.254t19.233-7.273q10.391-3.676,20.225-7.043c6.556-2.215,12.4-4.022,16.531-5.315,2.321-.78,6.839-2.011,8.017-3.96.478-.78-.558-1.719-1.887-1.586-2.6.257-3.588.23-6.13.4-3.2.2-6.6.416-11.729.78s-10.772.886-16.876,1.453V405.25h29.482c.549,0,2.542,0,2.542-1.648a4.908,4.908,0,0,0-1.665-3.544A134.756,134.756,0,0,0,291.151,389.827Zm-21.066-31.29H242.622v-53.41h27.463Z" transform="translate(-25.043 -33)" fill="#fb0074"/>
      <text id="都市文化祭" transform="translate(310 114.29)" fill="#fb0074" font-size="78" font-family="ZenKakuGothicNew-Black, Zen Kaku Gothic New" font-weight="800"><tspan x="0" y="0">都市文化祭</tspan></text>
      <path id="パス_4" data-name="パス 4" d="M356.85,159.33v85.931H593.383V159.33Zm51.6,30.944a15.389,15.389,0,0,1-1.719,6.937,29.011,29.011,0,0,1-4.429,6.1q-2.746,2.994-6.334,6.414-3.428,3.428-6.1,6.458a13.321,13.321,0,0,0-3.145,4.943h20.57v8.691H376.561v-2.87a23.389,23.389,0,0,1,1.2-7.371,27.915,27.915,0,0,1,4.022-7.539,63.868,63.868,0,0,1,7.7-8.531q2.392-2.312,4.545-4.624a27.365,27.365,0,0,0,3.544-4.58,9.152,9.152,0,0,0,1.435-4.27c.053-2.5-.5-4.35-1.639-5.581a6.485,6.485,0,0,0-4.979-1.834,5.032,5.032,0,0,0-4.624,2.312,12.4,12.4,0,0,0-1.435,6.538H376.8q0-8.531,4.341-13.235a14.573,14.573,0,0,1,11.206-4.7,17.585,17.585,0,0,1,8.327,1.958,14.174,14.174,0,0,1,5.82,5.661A17.125,17.125,0,0,1,408.453,190.274Zm54.394,27.463c-.992,4.261-2.658,7.468-5.067,9.647s-5.767,3.269-10.126,3.269-7.76-1.081-10.205-3.269-4.146-5.386-5.1-9.647a73.357,73.357,0,0,1-1.435-15.787,73.816,73.816,0,0,1,1.435-15.866c.957-4.252,2.658-7.459,5.1-9.647s5.847-3.269,10.205-3.269,7.734,1.09,10.126,3.269,4.075,5.4,5.067,9.647a72.445,72.445,0,0,1,1.471,15.866,72,72,0,0,1-1.471,15.751Zm55.74-27.463a15.377,15.377,0,0,1-1.71,6.937,29.012,29.012,0,0,1-4.429,6.1q-2.746,2.994-6.343,6.414-3.428,3.428-6.095,6.458a13.614,13.614,0,0,0-3.154,4.943h20.57v8.691H486.7v-2.87a23.387,23.387,0,0,1,1.2-7.371,27.968,27.968,0,0,1,4.031-7.539,63.78,63.78,0,0,1,7.689-8.531q2.392-2.312,4.545-4.624a27.366,27.366,0,0,0,3.544-4.58,9.152,9.152,0,0,0,1.435-4.27c.053-2.5-.487-4.35-1.63-5.581a6.5,6.5,0,0,0-4.988-1.834,5.032,5.032,0,0,0-4.624,2.312,12.4,12.4,0,0,0-1.435,6.538h-9.523q0-8.531,4.35-13.235a14.547,14.547,0,0,1,11.2-4.7,17.621,17.621,0,0,1,8.336,1.958,14.174,14.174,0,0,1,5.82,5.661,17.2,17.2,0,0,1,1.949,9.125Zm52.994,0a15.38,15.38,0,0,1-1.71,6.937,29.01,29.01,0,0,1-4.385,6.1q-2.755,2.994-6.343,6.414-3.428,3.428-6.095,6.458a13.613,13.613,0,0,0-3.154,4.943h20.588v8.691H539.689v-2.87a23.387,23.387,0,0,1,1.2-7.371,27.966,27.966,0,0,1,4.031-7.539,63.781,63.781,0,0,1,7.69-8.531q2.392-2.312,4.545-4.624a27.369,27.369,0,0,0,3.543-4.58,9.151,9.151,0,0,0,1.435-4.27c.053-2.5-.487-4.35-1.63-5.581a6.5,6.5,0,0,0-4.988-1.834,5.032,5.032,0,0,0-4.624,2.312,12.4,12.4,0,0,0-1.435,6.538h-9.523q0-8.531,4.35-13.235a14.546,14.546,0,0,1,11.2-4.7,17.621,17.621,0,0,1,8.336,1.958,14.174,14.174,0,0,1,5.785,5.7,17.124,17.124,0,0,1,1.984,9.089Z" transform="translate(-43.452 -18.094)" fill="#fb0074"/>
      <path id="パス_5" data-name="パス 5" d="M462.684,186.888a5.484,5.484,0,0,0-4.27-1.719,5.6,5.6,0,0,0-4.305,1.719c-1.063,1.143-1.825,3.145-2.268,6.015a80.03,80.03,0,0,0-.682,11.96,79.261,79.261,0,0,0,.682,11.924c.443,2.844,1.2,4.837,2.268,5.98a5.59,5.59,0,0,0,4.305,1.71,5.475,5.475,0,0,0,4.27-1.71q1.55-1.719,2.224-5.98a80.478,80.478,0,0,0,.682-11.924,81.273,81.273,0,0,0-.682-11.96Q464.243,188.562,462.684,186.888Z" transform="translate(-53.822 -21.042)" fill="#fb0074"/>
    </g>
  </g>
</svg>
