<?xml version="1.0" encoding="UTF-8"?>
<svg id="_イヤー_1" data-name="レイヤー 1" xmlns="http://www.w3.org/2000/svg" viewBox="0 0 340 280">
  <rect width="340" height="280" fill="#888"/>
  <g id="_イヤー_2" data-name="レイヤー 2">
    <g id="_イヤー_1-2" data-name="レイヤー 1-2">
      <path d="M94.24,147.78c-1.26,0-1.88-.58-1.88-1.74,0-.19,.02-.76,.07-1.7s.1-2.11,.15-3.51,.09-2.89,.15-4.46,.07-3.05,.07-4.45c-1.8,2.18-3.81,4.18-6,5.97-2.08,1.67-4.04,3.13-5.87,4.38-.72-.1-1.04-.46-.94-1.09,2.36-2.56,4.52-5.63,6.47-9.22,1.91-3.5,3.43-7.2,4.52-11.03h-2.46c-2.41,.05-4.44,.17-6.08,.36l-.86-3.11c2.28,.31,4.57,.51,6.87,.58h4.41v-3.98c0-1.79-.17-2.92-.51-3.4-.15-.25-.15-.55,0-.8,.17-.12,.37-.17,.58-.14h.15c.83,.03,1.65,.11,2.46,.25,1.11,.17,2.27,.35,3.47,.54,1.21,.19,2.22,.38,3.04,.58,.4,.1,.67,.46,.65,.87,0,.72-.32,1.08-.94,1.08-.37,.01-.74,.13-1.05,.33-.22,.17-.32,.47-.32,.9v3.76h1.74c.77,0,1.3-.22,1.59-.65,.24-.38,.61-.92,1.12-1.59,.51-.67,.85-1.16,1.05-1.45,.2-.22,.49-.35,.79-.36,.2,0,.4,.04,.58,.15,.67,.31,1.29,.71,1.84,1.19,.75,.6,1.47,1.23,2.17,1.88,.55,.49,1.05,1.03,1.48,1.63,.15,.21,.23,.46,.22,.72,0,.43-.19,.65-.58,.65h-12.02v3.91c1.91,.36,3.78,.89,5.59,1.59,1.8,.65,3.44,1.67,4.82,3,1.3,1.28,1.95,2.98,1.95,5.1,0,1.16-.29,2.11-.87,2.86-.53,.71-1.22,1.27-2.03,1.63-.5,.23-1.04,.35-1.59,.36-.58,.01-1.16-.14-1.66-.43-.49-.3-.81-.81-.87-1.37-.34-2.08-.99-4.11-1.92-6-.84-1.71-2-3.23-3.44-4.48v3.04c0,2.12,.05,4.27,.14,6.44s.18,4.05,.26,5.64c.07,1.59,.11,2.58,.11,2.97,0,.77-.7,1.4-2.1,1.88-1.47,.49-3.01,.74-4.56,.73Zm21.62,0c-1.25,0-1.88-.56-1.88-1.67,0-.29,.02-1.29,.07-3,.05-1.71,.12-3.89,.22-6.54,.1-2.65,.17-5.62,.22-8.9s.08-6.63,.07-10.05v-8.82c-.63,.96-1.24,1.88-1.84,2.75s-1.17,1.64-1.7,2.31h-.29c-.49,.03-.93-.31-1.01-.8,.25-.46,.48-.93,.69-1.41,.22-.51,.42-1.02,.62-1.57l-.58,.22c-.91,.19-1.83,.32-2.75,.4-1.2,.12-2.31,.18-3.33,.18-.39,0-.76,0-1.12-.04-.3-.02-.6-.05-.9-.11-1.3-.15-2.13-.44-2.5-.87-.36-.43-.54-1.13-.54-2.1v-13.3h-2.92c-.48,3.95-1.4,7.1-2.75,9.44-1.26,2.23-3.02,4.15-5.13,5.59-2.29,1.52-4.71,2.83-7.23,3.92-.29-.06-.54-.25-.69-.51-.12-.22-.13-.49-.04-.73,3.09-1.93,5.22-4.34,6.4-7.23,1.18-2.89,1.82-6.39,1.92-10.49h-.43c-2.36,.05-4.27,.12-5.71,.22l-.72-2.83c1.73,.19,3.88,.34,6.44,.43h.43c0-1.74-.07-3.62-.22-5.64-.05-.65-.13-1.31-.26-1.95-.09-.52-.21-1.02-.38-1.52-.15-.23-.12-.53,.07-.72,.15-.08,.32-.13,.49-.15,.68,.05,1.66,.16,2.97,.33,1.3,.17,2.6,.36,3.91,.58,1,.15,1.99,.36,2.97,.62,.48,.09,.82,.52,.79,1.01-.04,.63-.35,.94-.93,.94s-.95,.13-1.12,.4c-.21,.42-.32,.88-.33,1.34,0,1.64-.07,3.23-.22,4.77h1.66c.36-.01,.68-.2,.87-.51l1.01-1.88c.19-.34,.55-.43,1.08-.29,1.12,.35,2.22,.76,3.29,1.23,1.1,.45,2.17,.96,3.22,1.52,.48,.34,.72,.75,.72,1.23,.01,.52-.31,.98-.8,1.16l-.43,.22c-.53,.39-.8,1.01-.8,1.88v6.42c0,.58,.29,.87,.87,.87s1.09-.51,1.52-1.52c.14-.38,.35-.94,.61-1.66s.54-1.46,.83-2.21,.48-1.27,.58-1.57c.19-.13,.42-.21,.65-.22,.35-.02,.67,.18,.8,.51-.05,.39-.12,.94-.22,1.67-.1,.72-.18,1.41-.25,2.06s-.13,1.15-.18,1.48c0,.72,.19,1.18,.58,1.37,.22,.13,.42,.3,.58,.51,.67-2.26,1.29-4.6,1.84-7.01s1.02-4.76,1.41-7.05c.38-2.29,.65-4.3,.8-6.04,.05-.29,.07-.58,.07-.87,0-.27,.02-.53,.07-.8,0-.34,.07-.53,.22-.58,.17-.05,.34-.05,.51,0,.53,.08,1.05,.2,1.57,.36,.9,.24,1.9,.52,3.04,.83s2.16,.6,3.07,.87,1.45,.45,1.59,.54c.43,.15,.55,.51,.36,1.09-.1,.43-.31,.65-.65,.65-.87,0-1.42,.36-1.66,1.09-.53,1.49-1.15,3.06-1.84,4.7s-1.46,3.31-2.28,5.01c.33,.19,.66,.36,1.01,.51,.34,.15,.68,.31,1,.5h5.71c.24-1.11,.49-2.46,.76-4.05s.51-3.24,.73-4.95c.21-1.55,.32-3.1,.33-4.66v-1.81c0-.34,.07-.53,.22-.58,.15-.09,.33-.11,.51-.07,.72,.15,1.71,.39,2.97,.72,1.25,.33,2.5,.69,3.72,1.09,.95,.28,1.88,.62,2.78,1.01,.24,.1,.36,.39,.36,.87,0,.21-.05,.42-.15,.62-.08,.21-.28,.34-.51,.32h-.29c-.36-.02-.72,.08-1.01,.29-.29,.25-.54,.54-.73,.87-1.06,1.64-2.29,3.42-3.69,5.35-1.4,1.93-2.68,3.59-3.83,4.99h5.35c.82,0,1.37-.24,1.66-.72,.29-.38,.71-.96,1.27-1.74,.41-.59,.85-1.14,1.34-1.66,.24-.29,.45-.43,.65-.43,.25,.02,.5,.1,.72,.22,.71,.38,1.37,.83,1.99,1.34,.75,.6,1.46,1.23,2.13,1.88,.56,.52,1.07,1.09,1.52,1.7,.2,.25,.33,.55,.36,.87,0,.48-.24,.72-.72,.72h-11.79v11.42h.51c.82,0,1.37-.24,1.66-.72l2.24-3.04c.18-.26,.48-.42,.8-.43,.24,0,.72,.3,1.45,.9s1.47,1.28,2.24,2.01c.61,.58,1.19,1.2,1.73,1.84,.19,.22,.29,.5,.29,.79,0,.53-.24,.8-.73,.8h-10.19v11.64h.51c.82,0,1.37-.24,1.66-.72,.29-.39,.67-.9,1.12-1.56s.83-1.15,1.12-1.48c.18-.26,.48-.42,.8-.43,.24,0,.72,.3,1.45,.9s1.47,1.28,2.24,2.01,1.34,1.34,1.73,1.77c.19,.22,.29,.5,.29,.79,0,.58-.24,.87-.73,.87h-10.19v12.37h.87c.82,0,1.37-.24,1.66-.72,.29-.38,.71-.96,1.27-1.74,.41-.59,.85-1.14,1.34-1.66,.29-.34,.53-.51,.72-.51,.24,0,.47,.08,.65,.22,.7,.42,1.36,.89,1.99,1.41,.75,.6,1.46,1.21,2.13,1.84,.56,.5,1.07,1.06,1.52,1.66,.21,.27,.34,.6,.36,.94,0,.48-.24,.73-.72,.73h-24.59v2.75c0,.53-.34,.99-1.01,1.37-.79,.43-1.65,.72-2.53,.87-1.02,.21-2.07,.31-3.11,.32Zm11.78-47.22h-5.13v11.43h5.13v-11.43Zm0,13.6h-5.13v11.64h5.13v-11.64Zm0,13.81h-5.13v12.37h5.13v-12.37Z" fill="#fff"/>
      <path d="M150.84,197.8c-.94,0-1.41-.45-1.41-1.3,0-.19,.04-1.04,.11-2.57s.13-3.32,.17-5.39c-1.12,.34-2.52,.79-4.18,1.34s-3.36,1.16-5.11,1.78-3.37,1.24-4.86,1.84-2.66,1.12-3.53,1.58c-.3,.16-.56,.38-.76,.65-.14,.23-.19,.5-.14,.76,0,.41-.15,.67-.45,.79-.1,.06-.22,.1-.34,.11-.23-.02-.44-.15-.56-.34-.22-.49-.56-1.2-.99-2.15s-.85-1.9-1.24-2.88-.67-1.69-.82-2.15c-.08-.18-.08-.32,0-.39,.09-.11,.2-.19,.34-.22l1.19-.11,1.34-.11v-13.2c0-1.66-.13-2.8-.4-3.45-.11-.17-.13-.38-.05-.56,.1-.18,.3-.29,.51-.28,.45,.04,1.09,.11,1.92,.22l2.48,.34c.65,.08,1.29,.19,1.92,.34,.34,.05,.58,.36,.53,.7,0,.03-.01,.06-.02,.09,0,.42-.22,.67-.67,.74-.6,.04-.9,.36-.9,.96v13.61l2.2-.22v-22.19h-1.87v1.3c0,.34-.26,.63-.76,.87-.6,.28-1.24,.47-1.89,.57-.71,.13-1.42,.19-2.14,.2-.79,0-1.19-.36-1.19-1.07,0-.49,.06-1.83,.17-4.01,.11-2.18,.17-4.78,.17-7.79,0-2.44-.05-4.32-.14-5.64-.04-.91-.15-1.81-.31-2.71-.08-.17-.06-.37,.05-.51,.16-.07,.34-.09,.51-.06,.59,.12,1.18,.28,1.75,.48,.75,.25,1.52,.5,2.29,.76,.63,.21,1.24,.45,1.83,.73h5.99c.26,0,.51-.16,.62-.39,.08-.15,.2-.38,.37-.67,.14-.26,.3-.5,.48-.74,.15-.3,.41-.39,.79-.28,.57,.16,1.13,.35,1.67,.59,.66,.28,1.32,.58,1.98,.88,.66,.3,1.2,.57,1.61,.79,.23,.12,.36,.36,.34,.62,.04,.32-.15,.62-.45,.74l-.52,.28c-.45,.34-.67,.98-.67,1.92,0,.49,0,.98,.03,1.47s.03,1,.03,1.52c.34,0,.75,0,1.22,.03,.47,.02,.99,.03,1.55,.03h1.86c.31-.02,.59-.16,.79-.39,.09-.22,.21-.42,.37-.59,.17-.21,.33-.41,.48-.59,.19-.3,.36-.45,.51-.45,.39,.06,.76,.17,1.12,.34,.57,.22,1.2,.51,1.92,.85s1.34,.66,1.86,.96v-5.32c.01-.71-.04-1.42-.14-2.12-.05-.4-.16-.79-.31-1.16-.11-.3-.11-.52,0-.67,.12-.12,.28-.18,.45-.17,.66,.01,1.32,.06,1.98,.14,.87,.09,1.74,.2,2.63,.31,.66,.07,1.31,.19,1.95,.34,.34,.07,.58,.38,.56,.73,.04,.42-.27,.8-.69,.84h-.04c-.6,.12-.9,.42-.9,.91-.05,1.63,.19,3.26,.73,4.8,.53,1.47,1.27,2.86,2.2,4.12,.45-.9,.92-1.91,1.41-3.05,.46-1.06,.84-2.15,1.12-3.27,.08-.19,.13-.39,.17-.59,.04-.21,.08-.41,.11-.59,.04-.18,.14-.33,.28-.45,.21-.04,.42-.04,.62,0,.71,.26,1.41,.56,2.09,.9,.94,.45,1.87,.91,2.8,1.38,.68,.33,1.33,.72,1.95,1.16,.15,.08,.26,.23,.28,.4,.04,.17,.02,.35-.05,.51-.12,.32-.45,.51-.79,.45-.39-.04-.79,.02-1.16,.17-.36,.15-.74,.34-1.16,.57-.94,.6-2.02,1.24-3.25,1.92l-3.36,1.86c1.45,1.64,3.16,3.04,5.05,4.15,1.89,1.13,3.91,2.03,6.01,2.69-.83,.44-1.6,.98-2.29,1.61-.78,.69-1.5,1.44-2.15,2.26-.57,.7-1.07,1.47-1.47,2.28-2.3-1.69-4.25-4.08-5.85-7.16-1.63-3.18-2.76-6.59-3.36-10.11v3.84c0,2.37,.05,4.48,.14,6.32,.09,1.85,.14,3.07,.14,3.67,0,1.39-.62,2.59-1.86,3.58-1.24,1-3.07,1.66-5.48,2-.22-1.73-.64-2.98-1.24-3.75s-1.73-1.29-3.39-1.55c-.15-.15-.23-.35-.22-.57,0-.25,.12-.49,.34-.62h4.74c.94,0,1.41-.41,1.41-1.24v-9.55c-.24,.13-.44,.31-.59,.54-.15,.25-.3,.5-.43,.76-1.5,3.2-3.13,5.77-4.88,7.71-1.81,1.98-3.85,3.74-6.08,5.23,.64,.56,1.24,1.17,1.81,1.81l.11-.17c.17-.11,.39-.11,.57,0,.66,.12,1.32,.3,1.95,.54,.81,.28,1.64,.57,2.48,.87s1.53,.56,2.06,.79h11.12c.29-.01,.56-.16,.73-.4,.12-.27,.26-.54,.42-.79,.21-.34,.39-.64,.54-.9,.2-.33,.62-.45,.96-.28,.63,.2,1.25,.44,1.86,.7,.75,.32,1.5,.65,2.26,.99,.63,.27,1.23,.59,1.81,.96,.25,.13,.4,.39,.4,.67,.01,.36-.19,.69-.51,.85l-.62,.45c-.59,.38-.93,1.05-.91,1.75,0,1.39,.02,2.91,.06,4.52s.09,3.16,.17,4.63,.13,2.71,.17,3.75,.05,1.64,.05,1.83c0,.38-.27,.72-.82,1.02-.64,.34-1.32,.57-2.03,.71-.79,.17-1.59,.25-2.4,.25-.94,0-1.41-.45-1.41-1.36v-1.63h-12.37v1.97c0,.38-.27,.71-.82,1.02-.63,.33-1.31,.56-2.01,.67-.78,.15-1.57,.23-2.36,.24Zm-8.64-46.86h-6.94v13.49h6.94v-13.49Zm.28,16.43v7.11h.34c.42,.03,.83-.16,1.07-.51,.19-.3,.45-.7,.79-1.21l.73-1.1c.07-.23,.27-.39,.51-.4,.19,0,.38,.08,.51,.22,1.08-1.19,2-2.51,2.77-3.92,.88-1.6,1.64-3.26,2.26-4.97,.59-1.58,1.03-3.22,1.3-4.88h-3.78c-.36,0-.72,.01-1.07,.06,.08,2.07,.14,3.91,.2,5.5s.09,2.53,.09,2.79c0,.3-.26,.58-.76,.82-.6,.27-1.24,.46-1.89,.56-.71,.13-1.43,.2-2.15,.2-.33,.03-.65-.07-.9-.28h0Zm7.11,8.86h-7.11v11.57c1.54-.15,2.96-.27,4.26-.37,1.3-.09,2.29-.16,2.96-.2,.04-.79,.06-1.59,.06-2.4v-2.4c0-1.2,0-2.35-.03-3.44s-.07-2.01-.14-2.77h0Zm18.8,1.64h-12.36v6.21h12.36v-6.21Zm0,7.9h-12.36v6.44h12.36v-6.44Z" fill="#fff"/>
      <path d="M147.52,172.34c-.56-.45-.7-.56-1.08-.85-.15-.12-.32-.2-.51-.22-.24,0-.44,.17-.51,.4l-.73,1.1c-.34,.51-.6,.91-.79,1.21-.24,.35-.65,.54-1.07,.51h-.34v-7.12c.25,.21,.57,.31,.9,.28,.72,0,1.44-.07,2.15-.2,.65-.1,1.29-.29,1.89-.56,.51-.24,.76-.51,.76-.82,0-.26-.03-1.19-.09-2.79-.06-1.6-.12-3.44-.2-5.5l-.06-1.81c0-.52,0-1.03-.03-1.52s-.03-.98-.03-1.47c0-.94,.22-1.58,.67-1.92l.51-.28c.3-.11,.48-.42,.45-.74,.02-.26-.11-.5-.34-.62-.41-.22-.95-.49-1.61-.79s-1.32-.59-1.98-.88c-.54-.24-1.1-.44-1.67-.59-.38-.11-.64-.02-.79,.28-.18,.23-.34,.48-.48,.74-.17,.3-.29,.52-.37,.67-.11,.24-.36,.39-.62,.39h-5.97c-.6-.28-1.21-.53-1.83-.73-.77-.26-1.53-.52-2.29-.76-.57-.2-1.16-.36-1.75-.48-.17-.04-.35-.02-.51,.06-.12,.14-.14,.34-.05,.51,.16,.9,.26,1.8,.31,2.71,.09,1.32,.14,3.2,.14,5.64,0,3.02-.06,5.61-.17,7.79-.11,2.18-.17,3.52-.17,4.01,0,.71,.39,1.07,1.19,1.07,.72,0,1.44-.07,2.14-.2,.65-.1,1.29-.29,1.89-.57,.51-.24,.76-.53,.76-.87v-1.3h1.86v22.19l-2.2,.22v-13.6c0-.6,.3-.92,.9-.96,.45-.07,.67-.32,.67-.74,.1-.33-.09-.67-.42-.77-.03,0-.06-.02-.09-.02-.63-.14-1.27-.26-1.92-.34l-2.48-.34c-.83-.11-1.47-.19-1.92-.22-.21,0-.4,.1-.51,.28-.07,.19-.05,.4,.05,.56,.26,.64,.4,1.79,.4,3.45v13.2l-1.34,.11-1.19,.11c-.13,.04-.25,.12-.34,.22-.08,.08-.08,.21,0,.39,.15,.45,.42,1.17,.82,2.15s.81,1.94,1.24,2.88,.76,1.65,.99,2.15c.12,.19,.33,.32,.56,.35,.12-.01,.23-.05,.34-.11,.3-.11,.45-.38,.45-.79-.05-.26,0-.53,.14-.76,.2-.27,.46-.49,.76-.65,.87-.45,2.04-.97,3.53-1.58s3.11-1.22,4.86-1.84c1.75-.62,3.45-1.21,5.11-1.78,1.66-.56,3.13-1.02,4.18-1.34,.59-.2,1.73-.51,2.03-1,.12-.2-.14-.43-.48-.4-.66,.06-.91,.06-1.55,.1-.81,.05-1.67,.11-2.96,.2s-2.72,.22-4.26,.37v-11.58h7.45c.14,0,.64,0,.64-.42,0-.34-.16-.67-.42-.9-.83-.91-1.7-1.77-2.62-2.58Zm-5.32-7.9h-6.94v-13.49h6.94v13.49Z" fill="#fff"/>
      <g isolation="isolate">
        <path d="M171.18,113.14v-16.46c-.3,.7-.63,1.39-1.01,2.07-.38,.68-.79,1.35-1.23,1.99h1.67v1.99h-3.26c-.23,.27-.47,.53-.73,.79s-.52,.51-.79,.77h3.91v8.38h-7.37v-5.82c-.27,.15-.54,.3-.82,.44-.28,.15-.56,.3-.86,.44-.11-.27-.29-.58-.53-.95-.25-.36-.48-.65-.69-.87,.91-.39,1.79-.85,2.63-1.38,.84-.53,1.63-1.13,2.37-1.8h-4.03v-1.99h3.42v-1.73h-2.8v-2.03h2.8v-2.18h2.24v2.18h1.73v1.61c.23-.43,.45-.87,.65-1.31,.21-.44,.4-.9,.57-1.37l2.11,.75v-1.11h6.63l.91,.62c-.11,.25-.25,.59-.42,1.02-.17,.42-.37,.88-.58,1.37s-.43,.97-.63,1.45c-.21,.48-.4,.9-.57,1.28-.17,.38-.31,.66-.4,.85,.69,.59,1.28,1.29,1.77,2.1,.5,.81,.75,1.8,.75,2.95,0,1.24-.31,2.18-.93,2.84-.62,.66-1.51,.99-2.68,.99h-.83c-.03-.34-.09-.74-.19-1.21-.1-.47-.21-.85-.33-1.13h.87c1.17,0,1.75-.54,1.75-1.63,0-.98-.21-1.85-.62-2.6-.42-.75-1.04-1.48-1.87-2.18,.08-.19,.21-.49,.39-.92,.18-.42,.37-.89,.57-1.39,.2-.5,.39-.98,.55-1.42,.17-.44,.28-.78,.33-1.01h-2.22v15.59h-2.24Zm-6.55-5.54h2.86v-1.49h-2.86v1.49Zm0,3.26h2.86v-1.53h-2.86v1.53Zm1.47-10.11h.26c.23-.27,.44-.55,.64-.85,.2-.3,.39-.59,.56-.89h-1.47v1.73Z" fill="#fff"/>
        <path d="M188.28,113.1v-9.55h-3.42v7.94h-2.46v-10.23h5.88v-1.77h-7.92v-2.24h7.92v-2.5h2.48v2.5h7.92v2.24h-7.92v1.77h6.08v7.96c0,.75-.22,1.3-.65,1.64s-1.09,.51-1.96,.51h-1.57c-.01-.23-.05-.5-.11-.81-.06-.31-.12-.61-.19-.92s-.14-.55-.22-.73h1.43c.28,0,.48-.04,.6-.13,.12-.09,.18-.27,.18-.55v-4.67h-3.58v9.55h-2.48Z" fill="#fff"/>
        <path d="M201.41,113.24c-.09-.32-.27-.71-.52-1.18s-.52-.84-.79-1.12c3.22-.59,5.86-1.77,7.92-3.52-.78-.95-1.46-2.02-2.04-3.19-.58-1.17-1.1-2.49-1.56-3.96h-3.83v-2.15h7.77v-3.5h2.62v3.5h7.71v2.15h-3.62c-.44,1.46-.96,2.78-1.54,3.96-.58,1.18-1.26,2.23-2.02,3.15,1.02,.86,2.19,1.58,3.5,2.17,1.31,.58,2.74,1.02,4.28,1.3-.17,.19-.36,.43-.55,.73-.19,.29-.37,.59-.52,.9s-.27,.56-.33,.78c-1.72-.5-3.25-1.07-4.58-1.73-1.34-.66-2.52-1.44-3.56-2.34-1.05,.89-2.25,1.66-3.62,2.32-1.36,.66-2.93,1.24-4.7,1.75Zm8.34-7.61c1.21-1.53,2.06-3.32,2.56-5.36h-5.24c.51,2.05,1.4,3.84,2.68,5.36Z" fill="#fff"/>
        <path d="M223.91,112.98v-10.25c-.38,.46-.75,.89-1.14,1.29s-.76,.77-1.14,1.09c-.17-.23-.43-.49-.78-.8-.34-.3-.66-.54-.94-.71,.43-.35,.89-.79,1.37-1.33,.48-.54,.96-1.13,1.43-1.77,.47-.64,.91-1.3,1.33-1.97,.42-.67,.78-1.32,1.09-1.93,.31-.62,.53-1.16,.67-1.63l2.2,.83c-.42,1.14-.98,2.32-1.69,3.52v13.68h-2.4Zm7.69-.34c-.82,0-1.39-.12-1.71-.37-.32-.25-.48-.66-.48-1.24v-15.87h2.42v6.43c.66-.3,1.32-.61,1.99-.96,.67-.34,1.3-.69,1.89-1.06,.59-.36,1.08-.71,1.47-1.05l1.59,1.93c-.58,.4-1.26,.83-2.04,1.27-.79,.44-1.6,.86-2.46,1.26-.85,.4-1.67,.74-2.45,1.04v5.74c0,.19,.05,.33,.14,.41s.29,.13,.58,.13h2.66c.4,0,.72-.08,.95-.23,.23-.15,.4-.43,.51-.84s.21-.98,.29-1.73c.35,.15,.76,.3,1.23,.45,.47,.15,.85,.27,1.15,.35-.15,1.18-.35,2.08-.6,2.71s-.61,1.05-1.07,1.28-1.05,.34-1.79,.34h-4.27Z" fill="#fff"/>
        <path d="M247.29,113.28c-.04-.32-.11-.72-.21-1.19-.1-.47-.2-.84-.31-1.11h1.47c.28,0,.47-.05,.55-.14,.09-.09,.13-.25,.13-.46v-3.12h-6.93v-2.03c-.05,.04-.12,.08-.19,.11-.07,.03-.14,.06-.21,.09-.17-.23-.4-.5-.68-.83s-.56-.58-.85-.77c.55-.24,1.1-.53,1.65-.87,.55-.34,1.08-.7,1.59-1.09-.17-.2-.38-.42-.6-.66-.23-.24-.45-.46-.66-.64-.08,.07-.16,.13-.24,.2-.08,.07-.17,.13-.26,.2-.17-.27-.4-.54-.66-.83-.27-.28-.54-.51-.81-.69,.59-.39,1.17-.88,1.73-1.47,.56-.59,1.07-1.21,1.53-1.86,.46-.65,.81-1.26,1.07-1.82l2.05,.62c-.12,.26-.25,.51-.38,.77h3.36l.64,.42c-.05-.17-.11-.35-.17-.52-.06-.17-.12-.35-.17-.52l2.2-.46c.12,.46,.27,.9,.45,1.33,.18,.43,.39,.85,.61,1.25v-1.59h5.42l.77,.66c-.23,.4-.53,.89-.9,1.46-.37,.57-.75,1.14-1.15,1.7s-.75,1.05-1.06,1.45c1.2,1.02,2.47,1.8,3.83,2.34-.16,.12-.35,.3-.55,.52-.21,.23-.41,.47-.59,.73-.19,.26-.33,.48-.44,.67-.74-.38-1.46-.81-2.16-1.29s-1.37-1.03-2.01-1.63v1.35h-8.2v-1.15c-1.14,1.07-2.37,1.97-3.69,2.7h15.69v2.16h-6.61v3.91c0,.74-.21,1.28-.62,1.61-.42,.34-1.05,.5-1.91,.5h-1.51Zm-4.71-.56c-.13-.27-.34-.6-.62-.99-.28-.39-.54-.7-.76-.95,.36-.13,.77-.32,1.23-.56,.46-.24,.92-.51,1.39-.81,.47-.3,.91-.6,1.31-.91,.4-.31,.73-.59,.97-.85l1.59,1.57c-.44,.46-.96,.91-1.55,1.37-.59,.46-1.2,.87-1.81,1.23-.62,.36-1.19,.66-1.73,.89Zm2.07-11.98c.11-.11,.21-.21,.32-.32,.11-.11,.21-.21,.3-.32-.19-.19-.42-.4-.68-.62-.27-.23-.53-.44-.79-.62-.09,.09-.18,.19-.27,.29-.09,.1-.18,.2-.27,.29,.23,.17,.47,.39,.72,.63,.25,.25,.48,.47,.67,.67Zm1.77-2.01c.15-.21,.29-.43,.43-.65,.14-.22,.26-.44,.35-.65h-2.26l-.1,.14c.24,.16,.51,.35,.81,.57,.3,.22,.55,.42,.77,.59Zm.52,2.64h6.37c-.67-.73-1.28-1.52-1.83-2.39s-1.01-1.8-1.39-2.81c-.31,.94-.74,1.85-1.28,2.73s-1.17,1.7-1.86,2.47Zm10.51,11.36c-.52-.21-1.1-.51-1.72-.88s-1.23-.78-1.82-1.24c-.59-.46-1.11-.91-1.55-1.37l1.55-1.51c.25,.27,.59,.55,1,.86,.41,.3,.85,.6,1.32,.89,.47,.29,.93,.55,1.39,.78s.87,.41,1.23,.54c-.15,.13-.31,.32-.49,.55-.18,.24-.35,.48-.51,.73s-.29,.47-.38,.65Zm-2.94-13.33c.24-.32,.49-.67,.75-1.04,.25-.37,.44-.65,.56-.86h-2.68c.42,.68,.87,1.32,1.37,1.89Z" fill="#fff"/>
      </g>
      <path d="M159.84,117.88v21.71h59.75v-21.71h-59.75Zm13.04,7.82c0,.61-.15,1.21-.43,1.75-.3,.56-.68,1.08-1.12,1.54-.46,.5-1,1.04-1.6,1.62-.58,.58-1.09,1.12-1.54,1.63s-.72,.93-.79,1.25h5.2v2.2h-7.76v-.73c0-.63,.1-1.26,.3-1.86,.24-.68,.58-1.33,1.02-1.9,.58-.78,1.23-1.5,1.94-2.16,.4-.39,.79-.78,1.15-1.17,.34-.35,.64-.74,.9-1.16,.21-.32,.33-.69,.36-1.08,.01-.63-.13-1.1-.41-1.41-.33-.33-.79-.5-1.26-.46-.47-.04-.92,.19-1.17,.58-.27,.51-.4,1.08-.36,1.65h-2.41c0-1.44,.37-2.55,1.1-3.34,.73-.79,1.76-1.22,2.83-1.19,.73-.01,1.45,.16,2.1,.49,.62,.32,1.13,.82,1.47,1.43,.38,.71,.55,1.51,.49,2.31h0Zm13.74,6.94c-.25,1.08-.67,1.89-1.28,2.44s-1.46,.83-2.56,.83-1.96-.27-2.58-.83-1.05-1.36-1.29-2.44c-.26-1.31-.39-2.65-.36-3.99-.02-1.35,.1-2.69,.36-4.01,.24-1.07,.67-1.88,1.29-2.44s1.48-.83,2.58-.83,1.95,.28,2.56,.83,1.03,1.36,1.28,2.44c.27,1.32,.4,2.66,.37,4.01,.02,1.34-.1,2.67-.37,3.98h0Zm14.08-6.93c0,.61-.15,1.21-.43,1.75-.3,.56-.68,1.08-1.12,1.54-.46,.5-1,1.04-1.6,1.62-.58,.58-1.09,1.12-1.54,1.63-.45,.51-.71,.93-.8,1.25h5.2v2.2h-7.76v-.73c0-.63,.1-1.26,.3-1.86,.24-.68,.58-1.33,1.02-1.9,.58-.78,1.23-1.5,1.94-2.16,.4-.39,.79-.78,1.15-1.17,.34-.35,.64-.74,.9-1.16,.21-.32,.33-.69,.36-1.08,.01-.63-.12-1.1-.41-1.41-.33-.33-.79-.5-1.26-.46-.47-.04-.92,.19-1.17,.58-.27,.51-.4,1.08-.36,1.65h-2.41c0-1.44,.37-2.55,1.1-3.34,.72-.79,1.76-1.22,2.83-1.19,.73-.01,1.46,.16,2.11,.49,.62,.32,1.13,.82,1.47,1.43,.37,.71,.54,1.51,.49,2.31h0Zm13.39,0c0,.61-.15,1.21-.43,1.75-.3,.56-.67,1.08-1.11,1.54-.46,.5-1,1.04-1.6,1.62-.58,.58-1.09,1.12-1.54,1.63-.45,.51-.71,.93-.8,1.25h5.2v2.2h-7.78v-.73c0-.63,.1-1.26,.3-1.86,.24-.68,.58-1.33,1.02-1.9,.58-.78,1.23-1.5,1.94-2.16,.4-.39,.79-.78,1.15-1.17,.34-.35,.64-.74,.9-1.16,.21-.32,.33-.69,.36-1.08,.01-.63-.12-1.1-.41-1.41-.33-.33-.79-.5-1.26-.46-.47-.04-.92,.19-1.17,.58-.27,.51-.4,1.08-.36,1.65h-2.41c0-1.44,.37-2.55,1.1-3.34,.72-.79,1.76-1.22,2.83-1.19,.73-.01,1.46,.16,2.11,.49,.62,.33,1.12,.83,1.46,1.44,.38,.7,.55,1.5,.5,2.3h0Z" fill="#fff"/>
      <path d="M183.86,124.09c-.28-.3-.67-.45-1.08-.43-.41-.02-.8,.14-1.09,.43-.27,.29-.46,.79-.57,1.52-.13,1-.19,2.01-.17,3.02-.02,1.01,.04,2.01,.17,3.01,.11,.72,.3,1.22,.57,1.51,.28,.29,.68,.45,1.09,.43,.41,.02,.8-.14,1.08-.43,.26-.29,.45-.79,.56-1.51,.13-1,.19-2.01,.17-3.01,.02-1.01-.04-2.02-.17-3.02-.11-.73-.3-1.24-.56-1.52Z" fill="#fff"/>
    </g>
  </g>
</svg>