<svg id="レイヤー_1" data-name="レイヤー 1" xmlns="http://www.w3.org/2000/svg" viewBox="0 0 355.32 400">
  <defs>
    <style>
      .cls-1 {
        fill: #fbfbfb;
        fill-rule: evenodd;
      }
    </style>
  </defs>
  <g id="white_logo_symbol" data-name="white/logo_symbol">
    <path id="Shape" class="cls-1" d="M135.93,135.52V104.93c0-5.57.29-7.43,1.15-10.29,2.29-7.86,10-13.72,19.21-13.72s16.92,6,19.22,13.72c.86,2.86,1.15,4.72,1.15,10.29v47.18a38.54,38.54,0,0,1-.58,8.29,20.9,20.9,0,0,1-15.2,15.15,39.44,39.44,0,0,1-8.31.57H105.25c-5.59,0-7.46-.28-10.33-1.14-7.74-2.29-13.76-10-13.76-19.15s6-16.87,13.76-19.16c2.87-.86,4.74-1.15,10.33-1.15ZM304.56,349.39H50.76V126.52a9.89,9.89,0,0,1,3-7.29l65.82-65.62a10,10,0,0,1,7.31-3H304.56ZM333.38.29A51.88,51.88,0,0,0,327.07,0H120.16c-2.29,0-4.59.14-6.17.29-9.46.85-17.92,5.29-24.66,12l-77,76.77c-6.74,6.72-11.18,15.16-12,24.59C.14,115.22,0,117.51,0,119.8v252a51.73,51.73,0,0,0,.29,6.29c1.14,10.72,10.89,20.44,21.65,21.58a51.88,51.88,0,0,0,6.31.29H327.07a51.88,51.88,0,0,0,6.31-.29c10.75-1.14,20.51-10.86,21.65-21.58a54,54,0,0,0,.29-6.29V28.16a53.82,53.82,0,0,0-.29-6.29C353.89,11.15,344.13,1.43,333.38.29Z"/>
  </g>
  <g id="white_logo_symbol-2" data-name="white/logo_symbol">
    <path id="Shape-2" data-name="Shape" class="cls-1" d="M135.93,135.53v-30.6c0-5.57.29-7.43,1.15-10.29,2.29-7.86,10-13.72,19.21-13.72s16.92,6,19.22,13.72c.86,2.86,1.15,4.72,1.15,10.29v47.18a38.54,38.54,0,0,1-.58,8.29,20.9,20.9,0,0,1-15.2,15.15,38.77,38.77,0,0,1-8.31.58H105.25c-5.59,0-7.46-.29-10.33-1.15-7.74-2.29-13.76-10-13.76-19.15s6-16.87,13.76-19.16c2.87-.86,4.74-1.14,10.33-1.14ZM304.56,349.39H50.76V126.52a9.89,9.89,0,0,1,3-7.29l65.82-65.62a10,10,0,0,1,7.31-3H304.56ZM333.38.29A51.88,51.88,0,0,0,327.07,0H120.16c-2.29,0-4.59.14-6.17.29-9.46.85-17.92,5.29-24.66,12l-77,76.77c-6.74,6.73-11.18,15.16-12,24.59C.14,115.23,0,117.51,0,119.8v252a51.6,51.6,0,0,0,.29,6.29c1.14,10.72,10.89,20.44,21.65,21.58a51.88,51.88,0,0,0,6.31.29H327.07a51.88,51.88,0,0,0,6.31-.29c10.75-1.14,20.51-10.86,21.65-21.58a53.82,53.82,0,0,0,.29-6.29V28.16a54,54,0,0,0-.29-6.29C353.89,11.15,344.13,1.43,333.38.29Z"/>
  </g>
</svg>
