<svg xmlns="http://www.w3.org/2000/svg" viewBox="0 0 447.29 516.47"><defs><style>.cls-1{fill:#fff;}.cls-2{fill:#fb0074;}</style></defs><g id="レイヤー_2" data-name="レイヤー 2"><g id="レイヤー_1-2" data-name="レイヤー 1"><path class="cls-1" d="M63.74,292.94c-5.61,0-8.4-2.59-8.4-7.76,0-.86.1-3.39.32-7.59s.43-9.43.65-15.68S56.73,249,57,242s.33-13.62.33-19.88a190,190,0,0,1-26.83,26.67Q16.56,260,4.28,268.38c-3.23-.43-4.64-2.05-4.2-4.85Q15.91,246.4,29,222.33a239.05,239.05,0,0,0,20.2-49.28h-11q-16.17.31-27.15,1.61L7.19,160.77a288.58,288.58,0,0,0,30.7,2.58H57.6V145.58q0-12-2.26-15.19a3.49,3.49,0,0,1,0-3.56,3.79,3.79,0,0,1,2.58-.64h.65a81.91,81.91,0,0,1,11,1.13q7.43,1.14,15.51,2.42t13.57,2.59a3.8,3.8,0,0,1,2.91,3.88c0,3.23-1.41,4.84-4.2,4.84a9.31,9.31,0,0,0-4.69,1.46c-1,.76-1.45,2.1-1.45,4v16.8H99q5.17,0,7.11-2.91,1.62-2.58,5-7.11c2.26-3,3.82-5.17,4.69-6.46a5,5,0,0,1,3.55-1.62,4.62,4.62,0,0,1,2.59.65,35.61,35.61,0,0,1,8.24,5.33q5,4.05,9.69,8.4a45.78,45.78,0,0,1,6.63,7.28,5.25,5.25,0,0,1,1,3.23q0,2.91-2.58,2.91H91.21V190.5a143.7,143.7,0,0,1,25,7.11A61.24,61.24,0,0,1,137.74,211q8.73,8.56,8.73,22.78,0,7.75-3.88,12.76a23.1,23.1,0,0,1-9.05,7.27,18.46,18.46,0,0,1-7.11,1.62,14.17,14.17,0,0,1-7.43-1.94,8.17,8.17,0,0,1-3.88-6.14,97.08,97.08,0,0,0-8.56-26.82,63.91,63.91,0,0,0-15.35-20v13.58q0,14.22.64,28.76T93,268.05q.49,10.67.49,13.25,0,5.18-9.37,8.4A62,62,0,0,1,63.74,292.94Zm96.62,0q-8.4,0-8.4-7.44,0-1.94.32-13.41t1-29.24q.65-17.78,1-39.75t.32-44.92V118.76q-4.2,6.46-8.24,12.28t-7.59,10.34h-1.29a4.31,4.31,0,0,1-4.53-3.56,68.48,68.48,0,0,0,3.07-6.3c1-2.26,1.89-4.57,2.75-7l-2.59,1a104.39,104.39,0,0,1-12.28,1.78q-8.07.81-14.86.81c-1.73,0-3.39,0-5-.16a31.66,31.66,0,0,1-4-.49q-8.73-1-11.15-3.88t-2.42-9.37V54.77H73.43q-3.23,26.5-12.28,42.17a74.55,74.55,0,0,1-22.94,25A204.81,204.81,0,0,1,5.89,139.44a4.59,4.59,0,0,1-3.07-2.26,3.8,3.8,0,0,1-.16-3.24Q23.35,121,31.26,101.63t8.57-46.86H37.89q-15.84.33-25.53,1L9.13,43.14q11.62,1.29,28.76,1.94h1.94q0-11.64-1-25.21a74.88,74.88,0,0,0-1.14-8.72A44.31,44.31,0,0,0,36,4.36a2.56,2.56,0,0,1,.32-3.23A5.24,5.24,0,0,1,38.53.48q4.53.33,13.25,1.46T69.23,4.52A129.31,129.31,0,0,1,82.48,7.27,4.31,4.31,0,0,1,86,11.79Q85.71,16,81.83,16c-2.58,0-4.25.6-5,1.78a13.55,13.55,0,0,0-1.46,6q0,11-1,21.33h7.43a4.71,4.71,0,0,0,3.88-2.26l4.53-8.41c.86-1.5,2.47-1.94,4.84-1.29a149,149,0,0,1,14.71,5.49,148,148,0,0,1,14.38,6.79q3.22,2.26,3.23,5.49a5.37,5.37,0,0,1-3.56,5.17l-1.93,1c-2.38,1.73-3.56,4.53-3.56,8.41V94.2q0,3.87,3.88,3.87T129,91.29c.64-1.72,1.56-4.2,2.74-7.43s2.43-6.52,3.72-9.86,2.15-5.66,2.58-7a5.88,5.88,0,0,1,2.91-1,3.57,3.57,0,0,1,3.56,2.26q-.33,2.59-1,7.44c-.44,3.23-.81,6.3-1.13,9.21s-.6,5.12-.81,6.62q0,4.85,2.58,6.14a9.64,9.64,0,0,1,2.59,2.26q4.52-15.18,8.24-31.34t6.3-31.51q2.58-15.34,3.56-27a24.27,24.27,0,0,0,.32-3.88,17.92,17.92,0,0,1,.32-3.56c0-1.5.32-2.36,1-2.58a4.11,4.11,0,0,1,2.26,0,50.91,50.91,0,0,1,7,1.61c4,1.09,8.51,2.32,13.57,3.72s9.64,2.7,13.74,3.88,6.46,2,7.11,2.42c1.94.65,2.47,2.26,1.61,4.85q-.65,2.91-2.91,2.91-5.81,0-7.43,4.85-3.56,10-8.24,21T183,67.7A45.49,45.49,0,0,0,187.51,70,46.45,46.45,0,0,1,192,72.22h25.53q1.6-7.43,3.39-18.09T224.18,32a167,167,0,0,0,1.46-20.84V3.07c0-1.51.32-2.37,1-2.59a3.13,3.13,0,0,1,2.26-.32q4.84,1,13.25,3.23t16.64,4.85a110.24,110.24,0,0,1,12.44,4.52c1.08.44,1.62,1.73,1.62,3.88a6.82,6.82,0,0,1-.65,2.75,2.28,2.28,0,0,1-2.26,1.45h-1.29a7.16,7.16,0,0,0-4.53,1.29A15.58,15.58,0,0,0,260.86,26q-7.11,11-16.48,23.91t-17.13,22.3h23.92c3.66,0,6.14-1.07,7.43-3.23q1.93-2.58,5.66-7.76a64,64,0,0,1,6-7.43c1.08-1.29,2-1.94,2.91-1.94a7.71,7.71,0,0,1,3.23,1,51.72,51.72,0,0,1,8.89,6c3.34,2.7,6.51,5.49,9.53,8.4a55.24,55.24,0,0,1,6.79,7.6,7.16,7.16,0,0,1,1.61,3.88q0,3.23-3.23,3.23H247.29V133h2.26c3.66,0,6.14-1.07,7.43-3.23l10-13.57a4.63,4.63,0,0,1,3.56-1.94c1.07,0,3.23,1.35,6.46,4s6.57,5.71,10,9a95.76,95.76,0,0,1,7.75,8.24,5.58,5.58,0,0,1,1.3,3.55c0,2.38-1.08,3.56-3.24,3.56H247.29v52h2.26q5.49,0,7.43-3.23c1.3-1.73,3-4,5-6.95s3.72-5.12,5-6.63a4.63,4.63,0,0,1,3.56-1.94c1.07,0,3.23,1.35,6.46,4s6.57,5.71,10,9,6,6,7.75,7.92a5.58,5.58,0,0,1,1.3,3.55q0,3.88-3.24,3.88H247.29v55.26h3.88c3.66,0,6.14-1.07,7.43-3.23q1.93-2.58,5.66-7.76a64,64,0,0,1,6-7.43c1.3-1.5,2.37-2.26,3.23-2.26a4.7,4.7,0,0,1,2.91,1,74.3,74.3,0,0,1,8.89,6.3q5,4,9.53,8.24a49.45,49.45,0,0,1,6.79,7.43,7.43,7.43,0,0,1,1.61,4.2q0,3.24-3.23,3.24H190.09v12.28q0,3.54-4.52,6.14a36.72,36.72,0,0,1-11.31,3.87A74.34,74.34,0,0,1,160.36,292.94ZM213,81.92H190.09V133H213Zm0,60.75H190.09v52H213Zm0,61.72H190.09v55.26H213Z"/><path class="cls-1" d="M316.62,516.47c-4.21,0-6.31-2-6.31-5.81,0-.85.17-4.66.51-11.48s.58-14.84.75-24.08c-5,1.5-11.26,3.53-18.66,6s-15,5.18-22.83,7.95-15.06,5.52-21.71,8.21-11.89,5-15.76,7.06a10.25,10.25,0,0,0-3.41,2.9,5,5,0,0,0-.63,3.41c0,1.84-.67,3-2,3.53a4,4,0,0,1-1.51.51,3.45,3.45,0,0,1-2.52-1.52c-1-2.2-2.49-5.38-4.42-9.59s-3.78-8.5-5.55-12.87-3-7.55-3.65-9.59c-.34-.82-.34-1.41,0-1.76a2.91,2.91,0,0,1,1.5-1l5.31-.49,6-.51v-59c0-7.41-.59-12.52-1.77-15.4a2.77,2.77,0,0,1-.24-2.52,2.46,2.46,0,0,1,2.26-1.25c2,.16,4.88.49,8.59,1l11.09,1.52a85.69,85.69,0,0,1,8.58,1.5,2.77,2.77,0,0,1,2.27,3.53c0,1.87-1,3-3,3.29-2.69.16-4,1.6-4,4.29V475.1l9.83-1V374.93H247v5.81c0,1.52-1.14,2.81-3.41,3.9a31.59,31.59,0,0,1-8.45,2.53,55.5,55.5,0,0,1-9.58.88c-3.54,0-5.3-1.6-5.3-4.78q0-3.3.76-17.93t.75-34.82q0-16.38-.63-25.21a94.16,94.16,0,0,0-1.38-12.11,2.11,2.11,0,0,1,.24-2.28,3.56,3.56,0,0,1,2.28-.25,64,64,0,0,1,7.81,2.14q5.05,1.67,10.23,3.41a72.07,72.07,0,0,1,8.19,3.28h26.75a3.1,3.1,0,0,0,2.77-1.76c.34-.68.88-1.69,1.64-3a23.22,23.22,0,0,1,2.15-3.29c.67-1.35,1.85-1.76,3.53-1.27a53.46,53.46,0,0,1,7.44,2.65q4.41,1.9,8.83,3.92c2.94,1.36,5.34,2.53,7.19,3.53a2.82,2.82,0,0,1,1.51,2.77,3.14,3.14,0,0,1-2,3.29L306,307.57c-2,1.52-3,4.37-3,8.58,0,2.2,0,4.37.12,6.57s.12,4.46.12,6.8q2.28,0,5.43.12c2.11.1,4.42.14,6.94.14h8.33a5.12,5.12,0,0,0,3.53-1.76,10,10,0,0,1,1.64-2.65c.75-.92,1.47-1.81,2.14-2.65.84-1.35,1.6-2,2.27-2a17.87,17.87,0,0,1,5,1.52c2.53,1,5.38,2.28,8.59,3.78s6,2.95,8.32,4.29V306.56a56.51,56.51,0,0,0-.64-9.46,21.1,21.1,0,0,0-1.38-5.17c-.5-1.34-.5-2.34,0-3a2.67,2.67,0,0,1,2-.76,83.7,83.7,0,0,1,8.83.64c3.87.41,7.77.88,11.73,1.37a74.85,74.85,0,0,1,8.71,1.52,3.17,3.17,0,0,1,2.51,3.28,3.45,3.45,0,0,1-3.27,3.78c-2.69.52-4,1.85-4,4.05a58.9,58.9,0,0,0,3.28,21.43,71.44,71.44,0,0,0,9.84,18.42q3-6,6.3-13.62a93.92,93.92,0,0,0,5-14.63,13.21,13.21,0,0,0,.76-2.65c.17-.93.34-1.81.51-2.65a3.78,3.78,0,0,1,1.26-2,7.5,7.5,0,0,1,2.78,0,94.65,94.65,0,0,1,9.33,4q6.3,3,12.49,6.18a58.22,58.22,0,0,1,8.7,5.17,2.35,2.35,0,0,1,1.26,1.77,3.57,3.57,0,0,1-.24,2.28,3.18,3.18,0,0,1-3.54,2,10.63,10.63,0,0,0-5.17.76q-2.4,1-5.17,2.53-6.31,4-14.51,8.58l-15,8.31a92.52,92.52,0,0,0,22.58,18.54,124.6,124.6,0,0,0,26.86,12A49.47,49.47,0,0,0,437,386.41a76.71,76.71,0,0,0-9.59,10.1,53.72,53.72,0,0,0-6.56,10.2q-15.4-11.32-26.12-32a155.9,155.9,0,0,1-15-45.16v17.16q0,15.88.62,28.25t.64,16.4q0,9.33-8.33,16t-24.47,8.95c-1-7.72-2.86-13.33-5.55-16.77s-7.73-5.75-15.13-6.94a3.37,3.37,0,0,1-1-2.53,3.18,3.18,0,0,1,1.52-2.77h21.19q6.31,0,6.31-5.54V339.1a7.44,7.44,0,0,0-2.65,2.41,38.32,38.32,0,0,0-1.9,3.4q-10.08,21.43-21.81,34.43A146.38,146.38,0,0,1,302,402.69a93,93,0,0,1,8.07,8.07l.5-.76a2.32,2.32,0,0,1,2.53,0,51,51,0,0,1,8.7,2.4c3.61,1.25,7.32,2.56,11.1,3.9s6.85,2.52,9.21,3.53h49.7a4.27,4.27,0,0,0,3.27-1.77,28.75,28.75,0,0,1,1.89-3.53c.93-1.5,1.73-2.85,2.4-4a3.31,3.31,0,0,1,4.3-1.27A88.69,88.69,0,0,1,412,412.4c3.36,1.43,6.72,2.89,10.09,4.41a57,57,0,0,1,8.07,4.29,3.29,3.29,0,0,1,1.77,3,4.11,4.11,0,0,1-2.27,3.8l-2.77,2a8.94,8.94,0,0,0-4.05,7.82c0,6.22.09,13,.26,20.18s.42,14.13.76,20.7.58,12.13.76,16.77.24,7.35.24,8.19c0,1.69-1.22,3.21-3.65,4.54a32.37,32.37,0,0,1-9.09,3.16,51.93,51.93,0,0,1-10.71,1.13c-4.21,0-6.32-2-6.32-6.06v-7.3H339.83v8.82c0,1.69-1.22,3.19-3.66,4.54a30.08,30.08,0,0,1-9,3A57.54,57.54,0,0,1,316.62,516.47ZM278,307.08H247v60.29h31Zm1.26,73.41v31.78h1.51a5.36,5.36,0,0,0,4.8-2.27q1.26-2,3.53-5.42l3.28-4.93a2.46,2.46,0,0,1,2.27-1.77,3.15,3.15,0,0,1,2.27,1,89.69,89.69,0,0,0,12.36-17.53,155.79,155.79,0,0,0,10.09-22.22,113.48,113.48,0,0,0,5.81-21.82H308.29a31.79,31.79,0,0,0-4.79.27c.34,9.23.62,17.45.88,24.59s.38,11.31.38,12.48c0,1.36-1.14,2.57-3.41,3.66a32.78,32.78,0,0,1-8.44,2.52,54.68,54.68,0,0,1-9.59.89A5.48,5.48,0,0,1,279.28,380.49Zm31.78,39.61H279.28v51.71q10.34-1,19.05-1.64c5.79-.41,10.22-.72,13.24-.88.17-3.53.25-7.11.25-10.72V447.83c0-5.38,0-10.49-.12-15.37S311.4,423.46,311.06,420.1Zm84,7.31H339.83v27.75h55.24Zm0,35.31H339.83v28.76h55.24Z"/><path class="cls-2" d="M301.78,402.69c-2.52-2-3.15-2.52-4.84-3.78a4.75,4.75,0,0,0-2.27-1,2.46,2.46,0,0,0-2.27,1.77l-3.28,4.93q-2.26,3.41-3.53,5.42a5.36,5.36,0,0,1-4.8,2.27h-1.51V380.49a5.5,5.5,0,0,0,4,1.26,54.68,54.68,0,0,0,9.59-.89,32.78,32.78,0,0,0,8.44-2.52c2.27-1.09,3.41-2.3,3.41-3.66q0-1.76-.38-12.48c-.26-7.14-.54-15.36-.88-24.59l-.26-8.09c0-2.34,0-4.62-.12-6.8s-.12-4.37-.12-6.57c0-4.21,1-7.06,3-8.58l2.27-1.25a3.14,3.14,0,0,0,2-3.29,2.82,2.82,0,0,0-1.51-2.77c-1.85-1-4.25-2.17-7.19-3.53s-5.89-2.65-8.83-3.92a53.46,53.46,0,0,0-7.44-2.65c-1.68-.49-2.86-.08-3.53,1.27a23.22,23.22,0,0,0-2.15,3.29c-.76,1.33-1.3,2.34-1.64,3a3.1,3.1,0,0,1-2.77,1.76H248.5a72.07,72.07,0,0,0-8.19-3.28q-5.17-1.75-10.23-3.41a64,64,0,0,0-7.81-2.14,3.56,3.56,0,0,0-2.28.25,2.11,2.11,0,0,0-.24,2.28,94.16,94.16,0,0,1,1.38,12.11q.63,8.83.63,25.21,0,20.21-.75,34.82t-.76,17.93c0,3.18,1.76,4.78,5.3,4.78a55.5,55.5,0,0,0,9.58-.88,31.59,31.59,0,0,0,8.45-2.53c2.27-1.09,3.41-2.38,3.41-3.9v-5.81h8.32v99.14l-9.83,1V414.29c0-2.69,1.34-4.13,4-4.29,2-.33,3-1.42,3-3.29a2.77,2.77,0,0,0-2.27-3.53,85.69,85.69,0,0,0-8.58-1.5l-11.09-1.52c-3.71-.51-6.56-.84-8.59-1a2.46,2.46,0,0,0-2.26,1.25,2.77,2.77,0,0,0,.24,2.52c1.18,2.88,1.77,8,1.77,15.4v59l-6,.51-5.31.49a2.91,2.91,0,0,0-1.5,1c-.34.35-.34.94,0,1.76.66,2,1.88,5.22,3.65,9.59s3.62,8.66,5.55,12.87,3.41,7.39,4.42,9.59A3.45,3.45,0,0,0,225,514.7a4,4,0,0,0,1.51-.51c1.35-.5,2-1.69,2-3.53a5,5,0,0,1,.63-3.41,10.25,10.25,0,0,1,3.41-2.9q5.8-3,15.76-7.06t21.71-8.21q11.73-4.15,22.83-7.95c7.4-2.5,14-4.54,18.66-6,2.62-.88,7.72-2.27,9.05-4.47.54-.88-.63-1.94-2.13-1.79-2.93.29-4.05.26-6.92.45-3.61.23-7.45.47-13.24.88s-12.16,1-19.05,1.64V420.1H312.5c.62,0,2.87,0,2.87-1.86a5.54,5.54,0,0,0-1.88-4A152.09,152.09,0,0,0,301.78,402.69ZM278,367.37H247V307.08h31Z"/></g></g></svg>