<svg id="レイヤー_1" data-name="レイヤー 1" xmlns="http://www.w3.org/2000/svg" viewBox="0 0 24 19.5">
  <defs>
    <style>
      .cls-1 {
        fill: #fbfbfb;
      }
    </style>
  </defs>
  <path class="cls-1" d="M24,2.29a9.71,9.71,0,0,1-2.82.8A4.92,4.92,0,0,0,23.33.36a9.91,9.91,0,0,1-3.12,1.2A4.82,4.82,0,0,0,16.59,0a4.91,4.91,0,0,0-4.9,4.92,5.22,5.22,0,0,0,.13,1.13A14,14,0,0,1,1.67.91,4.89,4.89,0,0,0,1,3.37,4.85,4.85,0,0,0,3.2,7.46,4.84,4.84,0,0,1,1,6.88v0a4.93,4.93,0,0,0,4,4.83,5,5,0,0,1-1.3.17,4.53,4.53,0,0,1-.91-.09,4.91,4.91,0,0,0,4.58,3.42,9.75,9.75,0,0,1-6.11,2.11A11.48,11.48,0,0,1,0,17.29,13.92,13.92,0,0,0,7.55,19.5a13.92,13.92,0,0,0,14-14c0-.22,0-.43,0-.65A9.83,9.83,0,0,0,24,2.29Z"/>
</svg>
